<?xml version="1.0" standalone="no"?>
<!DOCTYPE svg PUBLIC "-//W3C//DTD SVG 1.1//EN" "http://www.w3.org/Graphics/SVG/1.1/DTD/svg11.dtd" >
<!--
2013-9-30: Created.
-->
<svg>
<metadata>
Created by iconfont
</metadata>
<defs>

<font id="iconfont" horiz-adv-x="1024" >
  <font-face
    font-family="iconfont"
    font-weight="500"
    font-stretch="normal"
    units-per-em="1024"
    ascent="896"
    descent="-128"
  />
    <missing-glyph />
    
    <glyph glyph-name="fujinderen" unicode="&#59160;" d="M275.34222222 720.44088889m-108.31644444 0a108.31644445 108.31644445 0 1 1 216.63288889 0 108.31644445 108.31644445 0 1 1-216.63288889 0ZM284.10311111-58.14044445000002h-17.408c-31.97155555 0-58.25422222 26.16888889-58.25422222 58.25422223l-51.2 486.17244444c0 31.97155555 26.16888889 58.25422222 58.25422222 58.25422223h119.92177778c31.97155555 0 58.25422222-26.16888889 58.25422222-58.25422223l-51.2-486.17244444c-0.22755555-32.08533333-26.39644445-58.25422222-58.368-58.25422223zM746.26844445 720.44088889m-108.31644445 0a108.31644445 108.31644445 0 1 1 216.63288889 0 108.31644445 108.31644445 0 1 1-216.63288889 0ZM755.02933333-58.14044445000002h-17.408c-31.97155555 0-58.25422222 26.16888889-58.25422222 58.25422223l-51.2 486.17244444c0 31.97155555 26.16888889 58.25422222 58.25422222 58.25422223h119.92177778c31.97155555 0 58.25422222-26.16888889 58.25422222-58.25422223l-51.2-486.17244444c-0.11377778-32.08533333-26.28266667-58.25422222-58.368-58.25422223z"  horiz-adv-x="1024" />

    
    <glyph glyph-name="biaoqian" unicode="&#58985;" d="M0 896h1024v-1024H0zM568.29952 651.02848l173.50656-5.60128a30.72 30.72 0 0 0 29.71648-29.71648l5.59104-173.50656a51.2 51.2 0 0 0-14.97088-37.85728l-281.1904-281.1904a30.72 30.72 0 0 0-43.43808 0L249.25184 311.43936a30.72 30.72 0 0 0 0 43.43808l281.1904 281.1904a51.2 51.2 0 0 0 37.85728 14.97088z m19.51744-189.30688a61.44 61.44 0 1 1 86.8864 86.8864 61.44 61.44 0 0 1-86.8864-86.8864z"  horiz-adv-x="1024" />

    
    <glyph glyph-name="xinpengyou" unicode="&#58895;" d="M0 896m113.777778 0l796.444444 0q113.777778 0 113.777778-113.777778l0-796.444444q0-113.777778-113.777778-113.777778l-796.444444 0q-113.777778 0-113.777778 113.777778l0 796.444444q0 113.777778 113.777778 113.777778ZM758.357333 250.481778h-52.280889v-52.337778h-26.168888v52.337778h-52.280889v26.168889h52.280889v52.309333h26.168888v-52.337778h52.280889v-26.140444z m-65.365333 130.787555a117.674667 117.674667 0 1 1 0.028444-235.377777 117.674667 117.674667 0 0 1 0 235.377777zM536.092444 263.566222c0 9.898667 1.024 19.541333 2.844445 28.928a14.165333 14.165333 0 0 1-5.660445 14.392889c-11.548444 8.078222-18.801778 15.160889-18.801777 20.252445v21.333333c30.151111 29.070222 58.368 75.861333 58.368 121.201778v42.752c0 64.768-49.578667 109.397333-110.136889 109.397333-60.586667 0-110.165333-44.657778-110.165334-109.397333v-42.752c0-45.056 28.216889-91.932444 58.396445-121.088V327.111111c0-23.893333-157.582222-89.998222-177.180445-105.386667-11.889778-9.329778-19.342222-28.330667-20.451555-48.924444a22.215111 22.215111 0 0 1 22.442667-23.153778h349.496888a156.330667 156.330667 0 0 0-49.152 113.891556"  horiz-adv-x="1024" />

    
    <glyph glyph-name="wo1" unicode="&#58890;" d="M584.1-65.79999999999995h-42.9c-16.1 0-29.4 13.3-29.4 29.4 0 16.1 13.3 29.4 29.4 29.4h42.9c16.1 0 29.4-13.3 29.4-29.4 0-16.1-13.1-29.4-29.4-29.4zM908.2-65.79999999999995H694.9V-7H889s8.5 35.4-19.3 58.7L638.1 169s-57.9 25.7-57.9 78.2l0.1 0.1v37.6c76.4 46.2 116.1 169.7 116.1 233v95.3c0 87.8-97.6 162.1-178.6 162.1H488c-77.2 0-178.6-76.4-178.6-162.1v-95.3c0-79.2 70.9-196.7 135.4-236.9v-33.9c0-52.5-58-78.2-58-78.2L154.6 51.60000000000002C127 28.399999999999977 135.4-7 135.4-7h292.3v-58.7H115.9c-49.6 0-38.7 78.2-38.7 78.2-1.1 47.7 38.7 78.2 38.7 78.2S319.1 189.70000000000005 348 208c23.6 15 34.3 44.1 37.4 54.5-68.9 65.1-134.3 173.7-134.3 238.8v97.8C248.8 714 374.5 833.8 483.3 833.8h39C624 835 758.1 719 754.4 599.1v-97.8c0-53.4-44.3-169.3-115.5-238.2 3-9.9 13.6-40 37.6-55.2C705.4 189.5 908 90.5 908 90.5s39.8-30.5 38.5-78.2c0.4 0.2 11.1-78.1-38.3-78.1z"  horiz-adv-x="1024" />

    
    <glyph glyph-name="wo2" unicode="&#58936;" d="M942.404267 5.495466999999962l-3.145956 25.887857-7.070151 31.400392-10.214969 29.810915-14.085689 30.621013-14.140302 23.522418-19.624391 22.769209-21.963662 18.038329-30.592569 17.286258s-215.508764 79.610311-211.611876 122.535253c4.733156 132.499911 78.720569 137.844053 90.412374 262.467129 11.662222 124.594631-49.409138 236.107093-173.337032 237.026418-123.926756 0.946631-189.508267-88.436053-190.121528-222.886116-0.612124-134.448924 118.388053-229.510258 63.188764-309.28896-35.769458-32.679253-175.675164-79.6672-175.675164-79.6672l-23.548587-10.187662-21.963662-10.995484-19.624391-14.111858-21.962525-21.992107-15.700195-22.770347-11.773725-21.962524-9.409422-23.52128-9.435591-26.694542-4.705849-21.183147-3.895751-18.065635-2.366578-21.184285v-18.817707l3.145956-18.845013 9.409422-12.55424 14.111858-9.409422 18.065635-1.586062h785.456925l14.112995 7.070151 10.995485 10.995484 7.070151 11.776 1.558755 14.891236-1.558755 19.624391z"  horiz-adv-x="1024" />

    
    <glyph glyph-name="faxian3" unicode="&#58934;" d="M512-128c-281.6 0-512 230.4-512 512s230.4 512 512 512 512-230.4 512-512-230.4-512-512-512zM512 844.8C256 844.8 51.2 640 51.2 384S256-76.79999999999995 512-76.79999999999995 972.8 128 972.8 384 768 844.8 512 844.8zM294.4 140.79999999999995c-6.4 0-12.8 0-19.2 6.4-6.4 6.4-6.4 19.2-6.4 25.6l140.8 294.4 6.4 6.4 6.4 6.4 294.4 140.8c6.4 6.4 19.2 0 25.6-6.4 6.4-6.4 6.4-19.2 6.4-25.6L614.4 294.4l-6.4-6.4s-6.4 0-6.4-6.4l-294.4-140.8h-12.8z m160 300.8l-108.8-224 224 108.8 108.8 224-224-108.8z"  horiz-adv-x="1024" />

    
    <glyph glyph-name="faxian1" unicode="&#58881;" d="M512.48515625 834C264.22490234 834 62.9703125 632.74453125 62.9703125 384.48427734c0-248.26201172 201.25546875-449.51484375 449.51484375-449.51484375 248.26201172 0 449.51484375 201.25195313 449.51484375 449.51484375C962 632.74453125 760.74716797 834 512.48515625 834z m235.99599609-239.74101562L594.89580078 347.02617188a149.84736328 149.84736328 0 0 0-48.69755859-48.6984375L298.96542969 144.74326171999996a13.865625 13.865625 0 0 0-11.23769532-3.74589844 20.24121094 20.24121094 0 0 0-7.26416015 2.42226563c-9.74003906 5.47470703-13.19326172 17.80664063-7.7194336 27.54492187L426.32773437 418.19824219a149.8359375 149.8359375 0 0 0 48.6975586 48.69755859l247.2328125 153.58447266a13.86738281 13.86738281 0 0 0 11.23857422 3.74589843c14.98447266 0 22.47626953-14.98359375 14.98447265-29.9671875zM506.91113547 385.51502978L495.90461623 367.90453014l17.61049964 11.00660534a11.67433746 11.67433746 0 0 1 3.66878235 3.66886843l11.00651924 17.61041354-17.61041355-11.00651922a11.6709803 11.6709803 0 0 1-3.66886844-3.66886845z m5.5918372 2.20126942c1.90041548-0.12567861 3.33909123-1.76836687 3.2134126-3.66886844 0-2.02618016-1.64268826-3.66878234-3.66886843-3.66878236-2.02618016 0-3.66886844 1.64260217-3.66886843 3.66878236 0 2.02618016 1.64268826 3.66886844 3.66886843 3.66886844a3.43653518 3.43653518 0 0 0 0.45545583 0z"  horiz-adv-x="1024" />

    
    <glyph glyph-name="tongxunlu-yigai" unicode="&#58960;" d="M290.133333 520.5333330000001c0 175.5136 84.036267 256 187.733334 256s187.733333-80.4864 187.733333-256c0-90.146133-34.167467-169.437867-85.845333-215.04 4.9152-58.845867 120.32-80.247467 227.84-133.12 92.706133-45.568 96.938667-114.312533 96.938666-116.053333V8.53333299999997a51.2 51.2 0 0 0-51.2-51.2H102.4A51.2 51.2 0 0 0 51.2 8.53333299999997v47.786667c0 1.706667 4.232533 70.4512 96.938667 116.053333 107.52 52.872533 222.890667 74.274133 227.191466 133.12C324.3008 351.095467 290.133333 430.3872 290.133333 520.5333330000001z m34.133334 0c0-87.210667 34.816-162.679467 85.504-198.929066 26.077867-91.477333-117.794133-121.6512-227.498667-171.4176C93.013333 109.70453299999997 85.333333 66.55999999999995 85.333333 56.32000000000005v-13.653333c0-51.2 0-51.2 51.2-51.2h682.666667c51.2 0 51.2 0 51.2 51.2v13.653333c0 10.24-7.509333 53.1456-96.938667 93.866667-109.2608 49.7664-253.5424 79.906133-227.498666 171.4176C596.650667 357.88800000000003 631.466667 433.322667 631.466667 520.5333330000001c0 152.132267-66.218667 221.866667-153.6 221.866667S324.266667 672.6656 324.266667 520.5333330000001zM887.466667 230.39999999999998h68.266666a17.066667 17.066667 0 1 0 0-34.133333h-68.266666a17.066667 17.066667 0 1 0 0 34.133333z m-68.266667 136.533333h136.533333a17.066667 17.066667 0 1 0 0-34.133333h-136.533333a17.066667 17.066667 0 1 0 0 34.133333z m-102.4 136.533334h238.933333a17.066667 17.066667 0 1 0 0-34.133334h-238.933333a17.066667 17.066667 0 1 0 0 34.133334z"  horiz-adv-x="1024" />

    
    <glyph glyph-name="xiaoxi" unicode="&#58889;" d="M512.832 896C229.568 896 0 691.072 0 438.208c0-148.48 72.192-280.448 194.944-364.16C195.712 73.60000000000002 182.4-128 182.4-128l206.144 120.832c37.76-7.936 80.512-12.352 120.96-12.352 283.264 0 514.56 204.928 514.56 457.728C1024 691.072 796.032 896 512.832 896zM274.304 384a54.848 54.848 0 1 0 0 109.696 54.848 54.848 0 0 0 0-109.696z m219.392 0a54.848 54.848 0 1 0 0 109.696 54.848 54.848 0 0 0 0-109.696z m256 0a54.848 54.848 0 1 0 0 109.696 54.848 54.848 0 0 0 0-109.696z"  horiz-adv-x="1024" />

    
    <glyph glyph-name="chengshifuwu" unicode="&#58938;" d="M921.66 9.885999999999967l-840.09 0.425c0 0-90.418-4.057-18.761 63.969 18.829 10.309 40.889 19.91 65.632 28.643-6.166 13.879-9.717 29.371-9.717 45.791 0 58.646 44.015 106.176 98.318 106.176 54.303 0 98.318-47.531 98.318-106.176 0-1.248-0.133-2.463-0.173-3.693 6.338 0.821 12.735 1.625 19.201 2.368v549.18c0 36.084 26.701 64.676 62.899 64.676h376.887c36.198 0 61.463-28.593 61.463-64.676v-579.987c43.991-12.33 81.826-27.018 111.415-43.548 107.844-71.911-25.396-63.147-25.396-63.147zM544.59 615.721c0 18.039-14.231 32.338-32.337 32.338h-64.676c-18.103 0-32.337-14.299-32.337-32.338v-88.937c0-18.033 22.318-32.338 40.423-32.338h56.591c18.107 0 32.337 14.305 32.337 32.338v88.937zM544.59 381.26099999999997c0 18.047-14.231 32.337-32.337 32.337h-64.676c-18.103 0-32.337-14.29-32.337-32.337v-88.933c0-18.033 22.318-32.338 40.423-32.338h56.591c18.107 0 32.337 14.305 32.337 32.338v88.933zM754.794 615.721c0 18.039-14.235 32.338-32.337 32.338h-64.679c-18.103 0-32.338-14.299-32.338-32.338v-88.937c0-18.033 22.321-32.338 40.423-32.338h56.594c18.103 0 32.337 14.305 32.337 32.338v88.937zM754.794 381.26099999999997c0 18.047-14.235 32.337-32.337 32.337h-64.679c-18.103 0-32.338-14.29-32.338-32.337v-88.933c0-18.033 22.321-32.338 40.423-32.338h56.594c18.103 0 32.337 14.305 32.337 32.338v88.933z"  horiz-adv-x="1024" />

    
    <glyph glyph-name="sousuo" unicode="&#58898;" d="M448.564225 92.88985300000002c-193.9462 0-351.735923 158.605298-351.735923 353.553315S254.618025 799.997506 448.564225 799.997506s351.735923-158.605298 351.735923-353.553315S642.510426 92.88985300000002 448.564225 92.88985300000002zM448.564225 750.407064c-166.745698 0-302.400285-136.355551-302.400285-303.962873s135.653563-303.962873 302.400285-303.962873 302.400285 136.355551 302.400285 303.962873S615.310947 750.407064 448.564225 750.407064zM885.841384-31.997506000000044L660.969846 189.41628000000003 702.299137 230.30145600000003 927.170674 8.887669999999957Z"  horiz-adv-x="1024" />

    
    <glyph glyph-name="jiudian" unicode="&#58900;" d="M899.143341 46.686555l-35.661198 0L863.482143 444.062957c0 35.661198-30.566156 66.228377-66.227354 66.228377l-81.514525 0c-10.187013 0-20.374026-10.187013-20.374026-20.37812 0-10.188037 10.187013-20.379143 20.374026-20.379143l81.514525 0c10.188037 0 20.379143-10.187013 20.379143-20.37812l0-397.373333L664.794965 51.782618999999954 664.794965 698.789453c0 35.661198-30.566156 66.227354-66.227354 66.227354L231.761458 765.016807c-35.661198 0-66.227354-30.566156-66.227354-66.227354l0-652.102898-40.757263 0c-10.191106 0-20.37812-10.187013-20.37812-20.374026 0-10.19213 10.187013-20.379143 20.37812-20.379143l40.757263 0L664.794965 5.933385000000044l229.256404 0c10.187013 0 20.374026 10.187013 20.374026 20.379143C914.426419 36.49954100000002 909.334447 46.686555 899.143341 46.686555L899.143341 46.686555zM211.383338 46.686555L211.383338 698.789453c0 10.188037 10.191106 20.379143 20.37812 20.379143l371.902218 0c10.187013 0 20.374026-10.191106 20.374026-20.379143l0-652.102898L211.383338 46.686555 211.383338 46.686555zM211.383338 46.686555M506.866073 566.330652L328.559061 566.330652c-10.191106 0-20.37812-10.191106-20.37812-20.37812 0-10.187013 10.187013-20.379143 20.37812-20.379143l178.307012 0c10.188037 0 20.379143 10.19213 20.379143 20.379143C527.245216 556.139545 517.054109 566.330652 506.866073 566.330652L506.866073 566.330652zM506.866073 566.330652M506.866073 408.40176L328.559061 408.40176c-10.191106 0-20.37812-10.19213-20.37812-20.379143 0-10.191106 10.187013-20.37812 20.37812-20.37812l178.307012 0c10.188037 0 20.379143 10.187013 20.379143 20.37812C527.245216 398.20963 517.054109 408.40176 506.866073 408.40176L506.866073 408.40176zM506.866073 408.40176M506.866073 275.94193499999994L328.559061 275.94193499999994c-10.191106 0-20.37812-10.191106-20.37812-20.37812s5.095042-25.474185 20.37812-25.474185l178.307012 0c10.188037 0 20.379143 10.19213 20.379143 20.379143C527.245216 260.65988100000004 517.054109 275.94193499999994 506.866073 275.94193499999994L506.866073 275.94193499999994zM506.866073 275.94193499999994"  horiz-adv-x="1024" />

    
    <glyph glyph-name="xiangce" unicode="&#59286;" d="M898.814348 147.627525c-11.864212 0-21.457708 9.593496-21.457708 21.473057l0 472.767464c0 23.712051-19.331277 42.97886-42.97886 42.97886l-644.682905 0c-23.712051 0-42.97886-19.266809-42.97886-42.97886l0-515.746324c0-23.695678 19.266809-42.97886 42.97886-42.97886L726.898907 83.14286100000004c11.879562 0 21.521153-9.641591 21.521153-21.521153 0-11.816117-9.641591-21.457708-21.521153-21.457708L189.694875 40.164000999999985c-47.424102 0-85.974094 38.549991-85.974094 85.957721l0 515.746324c0 47.39238 38.549991 85.957721 85.974094 85.957721l644.682905 0c47.40773 0 85.957721-38.566364 85.957721-85.957721l0-472.767464C920.335501 157.22101999999995 910.69391 147.627525 898.814348 147.627525L898.814348 147.627525zM742.120586 46.47984699999995c-4.221138-4.221138-9.689686-6.315846-15.22168-6.315846-5.516644 0-10.984169 2.094708-15.205307 6.315846l-415.462317 415.445944L139.45668 324.97876799999995c-8.857738-7.867178-22.449291-7.131421-30.315446 1.759063-7.91425 8.857738-7.083326 22.449291 1.774413 30.331819l171.931814 150.442384c8.473999 7.546883 21.409612 7.194866 29.484521-0.87902l429.788603-429.788603C750.498394 68.449207 750.498394 54.84230500000001 742.120586 46.47984699999995L742.120586 46.47984699999995zM914.17929 154.086633c-4.221138-4.317329-9.801227-6.460132-15.365966-6.460132-5.40408 0-10.840906 2.030239-14.997576 6.108115l-226.662323 221.497697L535.236726 253.33198500000003c-8.425903-8.378831-22.032806-8.378831-30.426987 0-8.394181 8.394181-8.394181 21.98471 0 30.379914l136.963395 136.963395c8.346085 8.330736 21.776979 8.425903 30.219255 0.207731L913.828296 184.481897C922.302295 176.18390699999998 922.478304 162.59337800000003 914.17929 154.086633L914.17929 154.086633z"  horiz-adv-x="1024" />

    
    <glyph glyph-name="weixinxiaoxi" unicode="&#58925;" d="M958.576965 422.219463c0 214.58117-200.676485 389.164371-447.300442 389.164371-246.6434 0-447.300442-174.583201-447.300442-389.164371 0-128.633682 72.203462-247.613494 193.816241-320.504618l0-125.391848c0-7.624654 4.207835-14.626115 10.926864-18.254759 3.066849-1.676176 6.440689-2.476401 9.80532-2.476401 4.01136 0 7.990998 1.160429 11.456936 3.432169l57.085136 37.70781c0.931209 0.603751 1.828648 1.316995 2.65241 2.061962l65.577554 43.680848c32.462343-6.215562 64.719001-9.366322 96.040357-9.366322C757.901503 33.139004 958.576965 207.69559800000002 958.576965 422.219463L958.576965 422.219463 958.576965 422.219463zM511.252986 74.602348c-31.239492 0-63.58927 3.432169-96.17748 10.203386-5.3918 1.160429-11.067057 0.024559-15.70468-3.046383L323.819107 31.446455000000014c-0.892323-0.580215-1.750877-1.261737-2.521426-1.959631l-22.052249-14.563694L299.245432 113.689574c0 7.493671-4.051269 14.407128-10.541077 18.059308C173.945681 196.49755900000002 105.439424 305.11127899999997 105.439424 422.244023c0 191.749162 182.051289 347.701027 405.838122 347.701027 223.768413 0 405.834029-155.980517 405.834029-347.701027C917.110551 230.55318899999997 735.044936 74.602348 511.252986 74.602348L511.252986 74.602348 511.252986 74.602348zM367.42116 406.168905c0-25.39232-20.574594-45.977147-45.977147-45.977147-25.391297 0-45.977147 20.584827-45.977147 45.977147 0 25.397437 20.585851 45.977147 45.977147 45.977147C346.846566 452.146053 367.42116 431.566342 367.42116 406.168905L367.42116 406.168905zM569.730842 406.168905c0-25.39232-20.589944-45.977147-45.977147-45.977147-25.40153 0-45.977147 20.584827-45.977147 45.977147 0 25.397437 20.575618 45.977147 45.977147 45.977147C549.140898 452.146053 569.730842 431.566342 569.730842 406.168905L569.730842 406.168905zM757.316172 406.168905c0-25.39232-20.584827-45.977147-45.977147-45.977147-25.40153 0-45.977147 20.584827-45.977147 45.977147 0 25.397437 20.575618 45.977147 45.977147 45.977147C736.731344 452.146053 757.316172 431.566342 757.316172 406.168905L757.316172 406.168905zM757.316172 406.168905"  horiz-adv-x="1024" />

    
    <glyph glyph-name="gaotiedongche" unicode="&#58986;" d="M851.4 264.4c0 10.7-8.7 19.4-19.4 19.4L628.6 283.79999999999995c-10.7 0-19.4-8.7-19.4-19.4l0-9.7c0-10.7 8.7-19.4 19.4-19.4L832 235.29999999999995c10.7 0 19.4 8.7 19.4 19.4L851.4 264.4zM822.3 380.6l-77.5 106.5c0 0-11.7 18.6-38.7 29.1-64.1 24.8-116.2-9.7-116.2-9.7s-13.5-7-35.9-18.7l42.6-136.3L803 351.5C844 351.70000000000005 822.3 380.6 822.3 380.6zM541.5 409.6c-6.2 39.7-32.8 50.1-63.1 39-59.7-31-134.5-69.9-201.5-104.7-3.7-11.3-5.2-26.6 3.1-40.8 7-12.1 13.4-16.6 16.8-18.3l189.1 58.5C525.2 355.4 548.5 364.1 541.5 409.6zM841.7 196.60000000000002L105.6 196.60000000000002l0 29.1 143.7 44.5c3 4.6 4.5 12.1 1.6 23.3-4.5 17-12.6 24.1-19.1 27-47-24.5-86.4-45-108.1-56.3-13.6-7.1-18.1-19.1-18.1-19.1l0 48.4 406.8 222.8c0 0 121.4 78.4 213.1 48.4 91.7-30 184-251.8 184-251.8S954.6 199.79999999999995 841.7 196.60000000000002z"  horiz-adv-x="1024" />

    
    <glyph glyph-name="saoyisao" unicode="&#58904;" d="M872.274902-62.95354099999997L689.039647-62.95354099999997l0 67.14219 156.629293 0c24.694425 0 44.714388 20.050662 44.714388 44.745087L890.383328 205.59065799999996l67.157539 0 0-183.263907C957.540867-24.76580100000001 919.36643-62.95354099999997 872.274902-62.95354099999997L872.274902-62.95354099999997zM890.383328 563.64652L890.383328 720.220554c0 24.691355-20.019962 44.796252-44.714388 44.796252L689.039647 765.016807 689.039647 832.13239l183.235254 0c47.091528 0 85.265966-38.159088 85.265966-85.253686l0-183.232185L890.383328 563.64652 890.383328 563.64652zM174.354492 765.01783c-24.721031 0-44.769646-20.050662-44.769646-44.796252l0-156.574035-67.128887 0L62.455959 746.878704c0 47.094598 38.161135 85.253686 85.265966 85.253686l183.235254 0 0-67.11456L174.354492 765.01783 174.354492 765.01783zM147.721925-62.95354099999997c-47.104831 0-85.265966 38.186717-85.265966 85.280292l0 183.263907 67.101257 0 0-156.656923 0.027629 0c0-24.694425 20.048615-44.745087 44.769646-44.745087l156.602687 0 0-67.14219L147.721925-62.95354099999997 147.721925-62.95354099999997zM62.455959 343.89049l0 81.373309 895.084908 0 0-81.373309L62.455959 343.89049 62.455959 343.89049z"  horiz-adv-x="1024" />

    
    <glyph glyph-name="shouye" unicode="&#58919;" d="M389.216559 377.66982800000005c-17.130146 0-31.010271-13.880125-31.010271-31.010271l0-30.253024c0-17.130146 13.880125-31.010271 31.010271-31.010271s31.010271 13.880125 31.010271 31.010271l0 30.253024C420.22683 363.78970300000003 406.346705 377.66982800000005 389.216559 377.66982800000005zM631.241778 377.66982800000005c-17.130146 0-31.010271-13.880125-31.010271-31.010271l0-30.253024c0-17.130146 13.880125-31.010271 31.010271-31.010271 17.130146 0 31.010271 13.880125 31.010271 31.010271l0 30.253024C662.252049 363.78970300000003 648.372947 377.66982800000005 631.241778 377.66982800000005zM586.703399 237.23537799999997c-14.202467 9.337669-33.352619 5.349845-42.850947-8.701173-0.130983-0.191358-13.516852-19.61371-33.927717-19.61371-19.846 0-32.191166 17.968234-33.029254 19.22997-9.095145 14.314007-28.063149 18.665105-42.528606 9.700943-14.546298-9.045003-19.018146-28.163433-9.983375-42.709731 11.134595-17.918092 41.670052-48.241724 85.541235-48.241724 43.648103 0 74.568323 30.101575 85.954651 47.87845C605.034906 209.070922 600.87619 227.89770899999996 586.703399 237.23537799999997zM922.749992 115.12220300000001c-17.130146 0-31.010271-13.880125-31.010271-31.010271l0-9.347902c0-39.893592-32.464389-72.356958-72.356958-72.356958L199.176318 2.407071999999971c-39.893592 0-72.356958 32.464389-72.356958 72.356958L126.81936 522.208758c20.913309-12.465916 45.710065-19.790742 72.356958-19.790742l630.54286 0c37.673018 0 62.020542-23.12672 62.020542-58.921971l0-3.765767c0-17.130146 13.880125-31.010271 31.010271-31.010271s31.010271 13.880125 31.010271 31.010271l0 186.374758c0 62.576197-38.358633 125.71726-124.041084 125.71726l-3.638877 0c-23.451108 45.717228-74.085322 77.525678-132.808772 77.525678L345.960383 829.347974c-58.722426 0-109.357664-31.80845-132.808772-77.525678l-13.976316 0c-69.956282 0-127.536698-49.886177-133.756353-113.331161-0.402159-1.9934-0.621147-4.054339-0.621147-6.167466l0-557.559639c0-74.093509 60.283991-134.378523 134.378523-134.378523l620.206444 0c61.677734 0 113.795742 41.771359 129.522935 98.522897 3.068895 4.814656 4.855588 10.528797 4.855588 16.665565l0 28.53694C953.760263 101.24207799999999 939.880137 115.12220300000001 922.749992 115.12220300000001zM199.176318 689.801754l0-67.189262c0-17.130146 13.880125-31.010271 31.010271-31.010271s31.010271 13.880125 31.010271 31.010271l0 72.356958c0 39.893592 38.026058 72.356958 84.763522 72.356958l347.311147 0c46.737464 0 84.763522-32.464389 84.763522-72.356958l0-72.356958c0-17.130146 13.880125-31.010271 31.010271-31.010271 17.130146 0 31.010271 13.880125 31.010271 31.010271l0 66.61621c46.378284-5.169743 51.684126-45.227064 51.684126-63.123666l0-76.407204c-17.939581 9.44-38.942941 14.739702-62.020542 14.739702L199.176318 564.437535c-39.893592 0-72.356958 28.113291-72.356958 62.676481S159.282726 689.801754 199.176318 689.801754zM347.211886 653.5623889999999l348.008019 0c17.130146 0 31.010271 13.880125 31.010271 31.010271s-13.880125 31.010271-31.010271 31.010271L347.211886 715.582931c-17.130146 0-31.010271-13.880125-31.010271-31.010271S330.081741 653.5623889999999 347.211886 653.5623889999999zM929.149748 377.21547999999996L812.720016 377.21547999999996c-64.726164 0-117.379361-51.007721-117.379361-113.704668s52.653197-113.704668 117.379361-113.704668l116.429733 0c17.130146 0 31.010271 13.880125 31.010271 31.010271L960.16002 346.20520899999997C960.16002 363.33535500000005 946.280918 377.21547999999996 929.149748 377.21547999999996zM898.139477 211.826686l-85.419462 0c-30.526247 0-55.357795 23.187095-55.357795 51.684126s24.832572 51.684126 55.357795 51.684126l85.419462 0L898.139477 211.826686z"  horiz-adv-x="1024" />

    
    <glyph glyph-name="tongxunlu" unicode="&#59074;" d="M711.602525 508.208906l215.391628 0c16.918321 0 29.658484-8.594749 29.658484-26.744107 0-18.154475-14.712073-26.749224-31.629371-26.749224L711.602525 454.715575c-16.925485 0-30.656207 8.594749-30.656207 26.749224C680.946318 499.615181 694.677041 508.208906 711.602525 508.208906zM956.088796 358.900346c0-18.151405-12.748349-26.752294-29.661553-26.752294L757.275751 332.148052c-16.925485 0-30.65723 8.597819-30.65723 26.752294 0 18.149359 13.731746 26.743084 30.65723 26.743084l170.132842 0C944.324868 385.64343 956.088796 377.049704 956.088796 358.900346zM800.847106 81.61404200000004c0-39.784098-32.308847-64.12446-72.02643-64.12446L466.867592 17.48958200000004l-84.297918 0-245.941412 0c-39.711444 0-72.024383 24.337291-72.024383 64.12446l0 17.287735c0 36.45426 26.839275 68.769246 61.099566 81.065294l146.643871 65.364707c0 0 39.749306 12.218276 50.631144 24.411993 7.239891 8.121981 9.473769 34.901905 0.296759 52.481282-9.174963 17.577331-83.47825 114.289999-83.47825 195.409528 0 130.822534 85.99149 236.876965 192.06127 236.876965 106.073874 0 192.058201-106.054431 192.058201-236.876965 0-84.695984-83.380012-177.934528-90.234117-200.878077-6.859221-22.943548-7.41283-40.902572 0.333598-48.523133 12.050454-11.843746 43.062771-23.88806 43.062771-23.88806l162.670893-63.391772c34.262338-12.301164 61.10059-45.601594 61.10059-82.055854L800.847106 81.61404200000004 800.847106 81.61404200000004zM926.918429 216.700693L813.853327 216.700693c-16.921391 0-30.653137 8.594749-30.653137 26.752294 0 18.147312 13.731746 26.743084 30.653137 26.743084l114.049522 0c16.921391 0 29.647227-8.594749 29.647227-26.743084C957.549054 225.29851199999996 943.837774 216.700693 926.918429 216.700693z"  horiz-adv-x="1024" />

    
    <glyph glyph-name="biaoqing" unicode="&#58910;" d="M342.36416 470.99392c28.83072 0 52.1984 23.3728 52.1984 52.19328 0 28.83072-23.36768 52.1984-52.1984 52.1984-28.8256 0-52.19328-23.36768-52.19328-52.1984C290.16576 494.36672 313.53856 470.99392 342.36416 470.99392L342.36416 470.99392zM690.33984 470.99392c28.83072 0 52.1984 23.3728 52.1984 52.19328 0 28.83072-23.36768 52.1984-52.1984 52.1984s-52.19328-23.36768-52.19328-52.1984C638.14656 494.36672 661.50912 470.99392 690.33984 470.99392L690.33984 470.99392zM237.97248 302.19776c0-137.40032 124.63616-248.7808 278.37952-248.7808 153.74848 0 278.38464 111.38048 278.38464 248.7808L237.97248 302.19776 237.97248 302.19776zM516.352-103.168c269.056 0 487.168 218.12224 487.168 487.168 0 269.056-218.11712 487.168-487.168 487.168C247.296 871.168 29.184 653.056 29.184 384 29.184 114.94912 247.296-103.168 516.352-103.168L516.352-103.168 516.352-103.168zM516.352-68.37248c-249.83552 0-452.36736 202.53184-452.36736 452.37248 0 249.8304 202.53184 452.37248 452.36736 452.37248 249.84064 0 452.37248-202.53696 452.37248-452.37248C968.72448 134.15936 766.18752-68.37248 516.352-68.37248L516.352-68.37248 516.352-68.37248z"  horiz-adv-x="1024" />

    
    <glyph glyph-name="dazhongdianping" unicode="&#59025;" d="M537.741 441.917c128.703 67.569 199.489 217.187 160.88 363.587l-101.356-27.348c30.567-112.617-37.003-228.449-149.619-259.017s-228.449 37.003-259.017 149.619l-101.356-27.348c38.61-146.399 175.359-241.321 320.15-234.884-172.142-78.831-267.06-273.495-215.58-461.725l127.095 33.786c-37.003 141.573 46.657 286.366 186.621 323.367 141.573 37.003 286.366-46.657 323.367-186.621l127.095 33.786c-51.483 189.836-230.058 310.497-418.287 292.801zM442.822 532.009c70.787 19.305 112.617 91.7 93.309 162.49-6.434 24.132-19.305 43.437-35.394 59.525-32.174 32.174-80.441 46.657-127.095 33.786-46.657-12.87-80.441-49.872-93.309-93.309-6.434-22.523-6.434-45.045 0-69.178 19.305-70.787 91.7-112.617 162.49-93.309z"  horiz-adv-x="1024" />

    
    <glyph glyph-name="you" unicode="&#58891;" d="M681.322 357.73199999999997c0.011 0 0.025 0 0.04 0 6.564 0 12.506 2.667 16.801 6.978 4.312 4.31 6.979 10.264 6.979 16.841 0 6.577-2.666 12.532-6.978 16.84l-345.758 345.736c-9.302 9.302-24.375 9.302-33.681 0s-9.302-24.375 0-33.681l345.755-345.741c4.298-4.308 10.241-6.974 16.808-6.974 0.013 0 0.025 0 0.038 0zM336.843 13.251999999999953c0.011 0 0.025 0 0.04 0 6.564 0 12.506 2.667 16.801 6.977l344.478 344.481c9.302 9.302 9.302 24.375 0 33.681s-24.375 9.302-33.681 0l-344.477-344.483c-4.313-4.31-6.982-10.265-6.982-16.843 0-13.15 10.66-23.811 23.812-23.811 0.005 0 0.008 0 0.011 0z"  horiz-adv-x="1024" />

    
    <glyph glyph-name="didichuhang" unicode="&#59190;" d="M832 624V467.2c-3.2-179.2-144-320-320-320S195.2 288 192 467.2V624h640v192H44.8C19.2 812.8 0 793.6 0 768v-310.4c0-35.2 3.2-67.2 9.6-102.4 6.4-32 16-64 32-92.8 12.8-32 28.8-60.8 48-86.4 19.2-25.6 38.4-51.2 60.8-73.6 12.8-12.8 28.8-25.6 41.6-38.4 9.6-9.6 22.4-16 32-25.6 25.6-19.2 57.6-35.2 86.4-48 32-12.8 64-22.4 96-28.8 32-6.4 67.2-9.6 102.4-9.6s70.4 3.2 102.4 9.6 64 16 96 28.8 60.8 28.8 86.4 48c12.8 9.6 22.4 16 32 25.6 12.8 12.8 28.8 25.6 41.6 38.4 22.4 22.4 44.8 48 60.8 73.6 19.2 25.6 35.2 54.4 48 86.4 12.8 32 22.4 64 32 92.8 6.4 32 9.6 67.2 9.6 102.4V624H832z"  horiz-adv-x="1024" />

    
    <glyph glyph-name="wo" unicode="&#59224;" d="M995.910224-125.44638399999997c-12.76808 0-25.53616 10.214464-25.536159 25.53616 0 2.553616-2.553616 22.982544-20.428928 61.286783-20.428928 40.857855-84.269327 91.930175-176.199501 107.25187-163.431421 28.089776-188.967581 135.341646-191.521197 140.448878v5.107232 74.054862c0 7.660848 5.107232 17.875312 12.76808 20.428928 17.875312 12.76808 71.501247 51.072319 86.822942 86.822943 5.107232 7.660848 12.76808 15.321696 22.982544 15.321696 28.089776 0 48.518703 53.625935 48.518703 71.501246 0 43.411471-10.214464 48.518703-22.982543 48.518704-15.321696 0-25.53616 10.214464-25.53616 25.536159V699.371571C702.244389 758.104738 640.957606 844.927681 510.723192 844.927681s-191.521197-86.822943-191.521197-145.55611v-145.55611c0-15.321696-10.214464-25.53616-25.53616-25.536159-12.76808 0-22.982544-2.553616-22.982543-48.518703 0-17.875312 20.428928-71.501247 45.965087-71.501247 10.214464 0 17.875312-5.107232 22.982544-15.321696 17.875312-35.750623 68.947631-74.054863 89.376558-86.822943 7.660848-5.107232 10.214464-12.76808 10.214464-20.428927v-74.054863c0-43.411471-40.857855-122.573566-191.521197-145.55611-86.822943-15.321696-145.55611-51.072319-176.199501-107.25187-5.107232-12.76808-10.214464-25.53616-15.321696-35.750624h791.620948c15.321696 0 25.53616-10.214464 25.536159-25.536159s-10.214464-25.53616-25.536159-25.53616H25.53616c-7.660848 0-15.321696 2.553616-20.428928 10.214464-5.107232 7.660848-5.107232 15.321696-5.107232 22.982543 0 2.553616 7.660848 43.411471 25.53616 81.715711 35.750623 71.501247 109.805486 117.466334 211.950124 135.341646 122.573566 20.428928 148.109726 76.608479 148.109726 97.037407v58.733167c-20.428928 15.321696-63.840399 48.518703-86.822943 86.822942-56.179551 12.76808-81.715711 89.376559-81.71571 120.01995 0 53.625935 15.321696 84.269327 48.518703 94.483791V699.371571C265.57606 793.855362 360.05985 896 510.723192 896s245.147132-102.144638 245.147132-196.628429v-122.573566c33.197007-10.214464 48.518703-40.857855 48.518703-94.483791 0-30.643392-25.53616-107.25187-84.269326-120.01995-22.982544-38.304239-66.394015-71.501247-86.822943-86.822942v-56.179551c5.107232-12.76808 30.643392-79.162095 148.109726-99.591023 109.805486-17.875312 186.413965-81.715711 211.950124-135.341646 25.53616-51.072319 28.089776-79.162095 28.089776-84.269326 0-15.321696-10.214464-25.53616-25.53616-25.53616"  horiz-adv-x="1024" />

    
    <glyph glyph-name="kejian" unicode="&#58912;" d="M79.409548 442.797419c0 18.233806 14.831484 33.032258 33.032258 33.032258h67.451871v0.198194a32.867097 32.867097 0 0 1 23.353807 55.956645l0.29729 0.264258-47.69858 47.731613a32.701935 32.701935 0 0 0-9.678452 23.320774c0 8.819613 3.435355 17.11071 9.678452 23.353807l94.141935 94.141935a33.098323 33.098323 0 0 0 46.740645 0l47.665549-47.665548 0.29729 0.29729a32.867097 32.867097 0 0 1 55.956645 23.353807h0.132129V764.20129c0 18.167742 14.831484 33.032258 33.032258 33.032258h133.186065c18.167742 0 33.032258-14.864516 33.032258-33.032258v-66.989419c0-0.165161-0.099097-0.330323-0.099097-0.462452 0-19.422968 15.756387-35.179355 35.179355-35.179354 10.801548 0 20.116645 5.12 26.590968 12.783483l46.476387 46.443355a33.758968 33.758968 0 0 0 46.67458 0l94.141936-94.174968c6.276129-6.276129 9.711484-14.534194 9.711484-23.353806a32.801032 32.801032 0 0 0-9.678452-23.353806l-47.698581-47.698581 1.057033-1.057032a32.04129 32.04129 0 0 1-6.077936-18.002581c0-16.648258 12.552258-29.861161 28.672-32.04129v-0.990968h67.451871c18.167742 0 33.032258-14.798452 33.032258-33.032258v-133.153032c0-18.200774-14.864516-33.032258-33.032258-33.032258h-67.451871v-2.014968c-2.972903 0.891871-5.945806 1.849806-9.249032 1.849806a32.900129 32.900129 0 0 1-32.834065-32.867096c0-11.330065 6.077935-20.810323 14.798452-26.75613l-0.924903-0.89187 47.69858-47.731613a32.701935 32.701935 0 0 0 9.678452-23.320775 32.801032 32.801032 0 0 0-9.678452-23.353806l-94.174967-94.174968a33.792 33.792 0 0 0-46.707613 0l-47.698581 47.698581-0.264258-0.264258a32.867097 32.867097 0 0 1-55.956645-23.386839h-0.165161v-67.451871c0-18.200774-14.864516-33.032258-33.032258-33.032258h-133.153033c-18.200774 0-33.032258 14.831484-33.032258 33.032258v65.668129c0 0.627613 0.330323 1.156129 0.330323 1.783742a32.867097 32.867097 0 0 1-55.923613 23.353807l-0.330323 0.29729-47.632516-47.698581a33.131355 33.131355 0 0 0-46.740645 0l-94.141935 94.141936a32.801032 32.801032 0 0 0-9.678452 23.386838c0 8.819613 3.435355 17.11071 9.678452 23.353807l47.69858 47.698581-0.330322 0.29729a32.834065 32.834065 0 0 1-23.353807 55.923613v0.165161H112.474839c-18.200774 0-33.032258 14.798452-33.032258 33.032258v133.12z m23.353807-231.225806a98.270968 98.270968 0 0 1 6.375226-132.459355l94.141935-94.141935a98.766452 98.766452 0 0 1 70.028387-28.969291c22.065548 0 43.833806 7.729548 61.902452 22.296774 5.12-49.911742 46.872774-89.121032 98.105806-89.121032h133.12c51.365161 0 93.217032 39.407484 98.171871 89.451355a97.973677 97.973677 0 0 1 132.426323 6.342194l94.141935 94.141935a98.502194 98.502194 0 0 1 3.435355 135.993807 99.096774 99.096774 0 0 1 96.916645 98.865548v133.12a98.931613 98.931613 0 0 1-86.214193 97.841548 98.304 98.304 0 0 1-9.612387 128.42942l-94.141936 94.141935c-36.203355 36.269419-98.237935 37.095226-136.125935 3.237161A98.964645 98.964645 0 0 1 566.99871 863.298065h-133.186065c-51.332129 0-93.184-39.407484-98.105806-89.51742-38.912 31.777032-96.222968 29.960258-132.459355-6.276129l-94.141936-94.141935a98.436129 98.436129 0 0 1-29.002322-70.094452c0-23.122581 8.258065-44.725677 22.693161-62.331871-50.076903-4.954839-89.451355-46.80671-89.451355-98.138839v-133.153032a98.865548 98.865548 0 0 1 89.418323-98.105806zM499.877161 458.884129a91.136 91.136 0 0 0 91.036904-91.036903 91.136 91.136 0 0 0-91.036904-91.036903 91.136 91.136 0 0 0-91.036903 91.036903 91.136 91.136 0 0 0 91.036903 91.036903m0-248.138323a157.266581 157.266581 0 0 1 157.10142 157.10142 157.233548 157.233548 0 0 1-157.10142 157.101419 157.233548 157.233548 0 0 1-157.101419-157.101419 157.266581 157.266581 0 0 1 157.101419-157.10142"  horiz-adv-x="1024" />

    
    <glyph glyph-name="wei-" unicode="&#58882;" d="M1007.833754 440.998554a55.641446 55.641446 0 0 1-30.843373 94.874217L719.633272 573.995181a55.641446 55.641446 0 0 0-41.700241 30.349879L562.208694 837.274217a55.764819 55.764819 0 0 1-99.809157 0l-115.724337-232.929157a55.641446 55.641446 0 0 0-41.700241-30.349879L47.617851 535.9961450000001a55.641446 55.641446 0 0 1-30.843374-94.874217l185.800482-182.099277a55.641446 55.641446 0 0 0 15.915181-49.349398L175.186043-46.57349399999998a55.641446 55.641446 0 0 1 80.686265-58.60241l230.585061 120.535904a55.641446 55.641446 0 0 0 51.57012 0l230.58506-120.535904a55.641446 55.641446 0 0 1 80.809639 58.60241l-43.42747 256.493494a55.641446 55.641446 0 0 0 15.915181 49.349398zM769.599537 203.75132499999995l43.304097-256.493494a17.64241 17.64241 0 0 0-3.947952-15.051566 19.246265 19.246265 0 0 0-14.434699-6.908916 18.629398 18.629398 0 0 0-8.636144 2.220723L555.793272 48.053976000000034a92.776867 92.776867 0 0 1-86.361445 0L238.723393-72.48192800000004a18.629398 18.629398 0 0 0-8.636145-2.220723 19.246265 19.246265 0 0 0-14.434699 6.908916 17.64241 17.64241 0 0 0-3.947951 15.051566l43.304096 256.493494a92.776867 92.776867 0 0 1-26.525301 81.673253L42.682911 467.523855a18.629398 18.629398 0 0 0 10.363373 31.830362l257.357109 37.999036A92.776867 92.776867 0 0 1 379.86267 587.5662649999999l115.724337 233.299277a18.752771 18.752771 0 0 0 33.434217 0L644.745561 587.5662649999999a92.776867 92.776867 0 0 1 69.459278-50.459759l257.357108-37.752289a18.629398 18.629398 0 0 0 10.363373-31.830362L796.124839 285.424578a92.776867 92.776867 0 0 1-26.525302-81.673253zM710.627007 513.5421690000001a117.57494 117.57494 0 0 0-87.965301 63.90747l-98.698795 199.988433a12.337349 12.337349 0 0 1-22.083856 0l-98.698795-199.988433A117.451566 117.451566 0 0 0 313.981224 513.5421690000001L93.14267 480.354699a12.337349 12.337349 0 0 1-6.785542-20.973494l159.398554-156.314217a117.451566 117.451566 0 0 0 33.55759-103.386988l-37.012048-220.098313A12.337349 12.337349 0 0 1 259.696887-33.495903999999996l197.39759 103.386988a117.451566 117.451566 0 0 0 108.692048 0l197.397591-103.386988a12.337349 12.337349 0 0 1 17.889156 12.954217l-37.012048 220.098314a117.328193 117.328193 0 0 0 33.55759 103.386987L938.251104 459.257831a12.337349 12.337349 0 0 1-6.785543 20.973494zM753.190863 329.46891600000004a154.340241 154.340241 0 0 1-44.167711-135.710844l24.674699-146.691084A12.337349 12.337349 0 0 0 716.178814 33.86602400000004L583.799055 102.70843400000001a154.463614 154.463614 0 0 1-142.989879 0L309.046284 33.86602400000004a12.337349 12.337349 0 0 0-17.889156 12.954217l24.674699 146.691084a154.340241 154.340241 0 0 1-44.167711 135.710844l-106.224579 104.127229a12.337349 12.337349 0 0 0 6.785543 20.973494L319.409658 476.53012a154.463614 154.463614 0 0 1 115.724337 84.01735l66.128193 133.243373a12.337349 12.337349 0 0 0 22.083855 0l66.128193-133.243373A154.586988 154.586988 0 0 1 705.198573 476.53012L851.889658 454.569639a12.337349 12.337349 0 0 0 6.785542-20.973494z"  horiz-adv-x="1024" />

    
    <glyph glyph-name="liebiaodaohang_gongyi" unicode="&#58937;" d="M233.38 554.69c24.67 62.59 76.33 79 120.51 79 66.6 0 136.54-51.68 174.14-134.57 38.62 84 109.9 134.57 174.18 134.57 44.2 0 83.84-18.74 106-50.17 26.35-37.37 34.93-88.48 3.61-147.34a434.72 434.72 0 0 0 80.15 0.32c20.61 71.69 13.44 141.56-22.69 191-39.87 54.44-98.67 81.89-167.06 81.89-64.7 0-123.82-30.65-174.17-86.24-50.33 55.59-109.44 86.24-174.15 86.24-75.23 0-149-39.15-182.32-108.81 5.84-14.08 33.95-31.15 61.8-45.89zM697.61 339.22c1.07 16.41 1.07 29.73 10.88 42.53C606.85 327.77 599.6 212 539.82 134.2 525 228 471.11 327.77 428.48 382c-30.73 39.07-66.25 79.52-91.8 117.78 0.69-16.66-3.56-36-3-52.65-42.09 58.16-225.3 91.67-198.92 173.23-39.8-56.86-23-201.07 16-260.59 59.2-90.32 174-114.16 256.19-175.86 40.7-30.54 84.27-68.91 121.09-125.34 59.41 88.21 122.22 126.71 174.6 163.49 36.8 25.81 65.61 47.17 97.44 79.36 36.61 37 51.53 94.8 111.93 100.44-31.85 4.62-180.68 20.82-214.4-62.64z"  horiz-adv-x="1024" />

    
    <glyph glyph-name="shoujichongzhi" unicode="&#59186;" d="M727.712068 858.422018h-432.146789c-60.702893 0-110.565984-49.863091-110.565985-110.565984v-726.989414c0-60.702893 49.863091-110.565984 110.565985-110.565985h432.146789c60.702893 0 110.565984 49.863091 110.565984 110.565985V747.856034c0 60.702893-49.863091 110.565984-110.565984 110.565984z m-432.869443-56.366972h432.146789c30.351447 0 54.199012-24.570219 54.199012-54.199012v-636.657728h-541.267466v636.657728c0.722653 29.628793 25.292872 54.199012 54.921665 54.199012z m432.869443-835.387438h-432.146789c-30.351447 0-54.199012 24.570219-54.199012 54.199012v34.687367h541.267466v-34.687367c-0.722653-30.351447-25.292872-54.199012-54.921665-54.199012zM385.896965 363.40437499999996c-15.175723 0-28.183486-12.285109-28.183486-28.183486 0-15.175723 12.285109-28.183486 28.183486-28.183486h96.835569V232.60409300000003c0-15.175723 12.285109-28.183486 28.183486-28.183486 15.175723 0 28.183486 12.285109 28.183486 28.183486v75.155963h96.835568c15.175723 0 28.183486 12.285109 28.183486 28.183487 0 15.175723-12.285109 28.183486-28.183486 28.183486h-96.835568v66.484121h96.835568c15.175723 0 28.183486 12.285109 28.183486 28.183487 0 15.175723-12.285109 28.183486-28.183486 28.183486h-33.964714l16.62103 37.577981c6.503881 14.45307 0 31.0741-14.45307 36.855329-14.45307 6.503881-31.0741 0-36.855328-14.45307l-26.738179-60.702894h-48.417784l-26.738179 60.702894c-6.503881 14.45307-23.124912 20.234298-36.855328 14.45307-14.45307-6.503881-20.234298-23.124912-14.45307-36.855329l16.62103-37.577981h-44.804517c-15.175723 0-28.183486-12.285109-28.183486-28.183486 0-15.175723 12.285109-28.183486 28.183486-28.183487h96.835569v-66.484121h-96.835569zM404.685956 698.715596m-30.351446 0a30.351447 30.351447 0 1 1 60.702893 0 30.351447 30.351447 0 1 1-60.702893 0ZM510.91602 698.715596m-30.351447 0a30.351447 30.351447 0 1 1 60.702893 0 30.351447 30.351447 0 1 1-60.702893 0ZM617.868737 698.715596m-30.351447 0a30.351447 30.351447 0 1 1 60.702893 0 30.351447 30.351447 0 1 1-60.702893 0Z"  horiz-adv-x="1024" />

    
    <glyph glyph-name="xiecheng" unicode="&#58923;" d="M852.544 341.05600000000004c-17.664 41.6-55.04 67.008-100.16 67.008-33.856 0-66.112-14.656-88.448-40.064a118.528 118.528 0 0 1-27.712-94.272l0.576-3.456c7.616-40.832-6.592-68.48-19.84-84.48a110.208 110.208 0 0 0-81.28-39.232c-26.624 27.392-33.344 77.056-18.944 142.272 68.352 5.568 146.496 55.104 169.984 179.008 13.568 4.224 31.296 8.832 41.728 11.456 22.528 5.824 36.864 9.6 48.128 14.656a61.568 61.568 0 0 1 20.352 14.592c59.2 8.128 102.72 46.08 115.968 102.976l0.64 3.392c4.544 25.6-2.88 52.352-20.48 73.344-16.064 19.328-39.232 32.768-67.392 39.296a161.408 161.408 0 0 1-30.656 51.392C756.352 823.04 695.296 848.384 627.584 848.384c-65.984 0-166.784-23.424-282.496-130.56a286.464 286.464 0 0 1-42.112 3.072c-111.168 0-190.208-58.688-206.272-153.152a63.808 63.808 0 0 1 64-74.56l14.784 1.472c-18.56-49.344-36.736-119.808-25.024-202.112 25.472-179.584 171.072-372.864 430.528-372.864 27.392 0 55.936 2.176 84.992 6.4a289.408 289.408 0 0 1 92.672 34.816l0.128 0.064c100.352 44.096 161.856 141.376 169.152 268.48l0.128 3.584c0.064 51.904-30.72 93.632-75.52 108.032z m-125.312-326.336l0.832-0.192c-17.344-9.92-43.584-22.464-70.784-27.264-26.752-3.904-52.16-5.76-76.16-5.76-246.4 0-351.36 192.064-369.536 319.744-17.92 126.144 48 220.416 50.688 242.304-5.696 22.4-19.52 29.248-35.456 29.248-25.472 0-56.192-17.728-66.112-17.728l-3.2 2.24c13.632 80.448 88 101.632 145.472 101.632 26.048 0 48.64-4.352 60.416-9.472 99.584 101.12 192.256 137.024 264.192 137.024 93.248 0 151.552-60.352 144.384-116.48l11.136 0.384c50.624 0 73.344-24.576 69.888-44.736-10.304-44.032-46.72-56.832-80.32-56.832-8.448 0-16.768 0.832-24.32 2.176-24.896 4.352-40.768 15.424-45.632 15.424l-1.728-1.792c-0.32-23.68 57.344-25.536 50.752-34.048-22.08-9.792-113.408-24.704-121.6-44.352-13.76-132.096-89.92-156.096-126.4-156.096-13.888 0-22.016 3.52-18.752 5.824 44.352 34.624 35.904 79.552 8.256 79.552-6.4 0-13.76-2.432-21.76-7.936-207.36-161.664-85.184-423.808 120.576-423.808h3.776c-117.184 23.936-213.504 135.872-144.576 307.84l3.52 1.088 3.264-4.48c-27.072-115.264 3.328-187.072 53.76-221.824 7.488-1.216 15.104-1.664 22.72-1.664 90.752 0 184.896 79.68 162.88 196.992a55.424 55.424 0 0 0 54.976 64.512c21.76 0 42.624-13.184 47.744-43.072 0.896-6.72 1.408-13.312 1.792-19.84h0.128l-0.128-0.128v0.064c-22.208-4.736-42.176-22.848-43.456-53.632 1.472-106.816-83.072-167.936-164.8-168.576h2.176c82.112 0 167.488 61.248 166.016 168.576a54.784 54.784 0 0 0 55.488 54.912c25.024 0 49.152-16.832 49.152-51.584-6.848-118.784-66.24-188.992-139.264-218.24zM660.608 611.904a40.256 40.256 0 0 1 30.656 14.336l-15.488-4.032c-17.664 0-32.128 14.528-32.128 32.448s14.464 32.448 32.128 32.448l8.896-1.344a39.744 39.744 0 0 1-24 8.128 40.768 40.768 0 0 1-40.64-41.024c0-22.592 18.176-40.96 40.576-40.96zM668.096 675.712l-4.16-7.552 8.448-8.256 8.448 8.256-4.224 7.552-4.288 1.152z"  horiz-adv-x="1024" />

    
    <glyph glyph-name="icon-p_xinfeng" unicode="&#58887;" d="M915.456 733.184H109.568c-33.792 0-61.44-27.648-61.44-61.44v-576.512c0-33.792 27.648-61.44 61.44-61.44h804.864c33.792 0 60.416 26.624 62.464 61.44V671.744c0 33.792-27.648 61.44-61.44 61.44zM512 300.03200000000004L118.784 692.2239999999999h785.408L512 300.03200000000004z m402.432-225.28H109.568c-11.264 0-20.48 9.216-20.48 20.48V664.576l408.576-407.552c4.096-4.096 9.216-6.144 14.336-6.144 5.12 0 10.24 2.048 14.336 6.144l409.6 409.6v-570.368c-1.024-12.288-10.24-21.504-21.504-21.504z"  horiz-adv-x="1024" />

    
    <glyph glyph-name="waimai-" unicode="&#58886;" d="M757.1 720.3c13 0 23.5-12 23.5-25.3-0.1-2.3-0.7-6.4-1-8.7-0.5-2-1.3-3.9-2.3-5.8-3.9-7.4-6.6-15.2-8.2-24L733 437.7c-8.1-49 19-97.2 64.3-114.5l13.3-5.1c4.7-1.8 9.6-2.9 14.6-3.1 66.6-3.8 118.7-62.5 118.7-133.8 0-73.6-56.3-133.5-125.6-133.5-60.7 0-112.6 46.1-123.4 109.5-3.9 23.1-23.9 39.9-47.3 39.9H376.4c-23.4 0-43.4-16.9-47.3-39.9-10.8-63.5-62.7-109.5-123.4-109.5-66.3 0-121.3 55.1-125.2 125.5-0.1 1.5-0.2 2.9-0.4 4.3v57c0 18.2 5.3 35.7 15.4 50.4l78.4 114.7c8.7 12.8 10.7 28.8 5.6 43.1h220.3c4.5 0 8.6-2.9 11-7.2l-6.7-11.7-11.9-20.7-9.4-16.4c-12.4-21.7-12.4-47.5 0.1-69.2 14.3-24.7 42.9-40.7 72.7-40.7h84.7c44.6 0 152.3 18.1 188.1 185.8 0.4 1.8 0.6 3.5 0.8 5.3L743.6 614c9.8 31.5 4.7 65.8-14 93.1-3.2 4.7-6.8 9.1-10.7 13.2h38.2m61.3-619.2c43.4 0 78.6 35.9 78.6 80s-35.3 80-78.6 80c-43.4 0-78.6-35.9-78.6-80s35.2-80 78.6-80m-612.8 0c43.4 0 78.6 35.9 78.6 80s-35.3 80-78.6 80c-43.4 0-78.6-35.9-78.6-80s35.3-80 78.6-80m150 587c14.6 0 23.6-19.7 23.6-38v-70.3H136.5v70.3c0 15.4 22.1 37.6 31.8 38h187.3m401.5 80.2h-143c-16.9 0-30.6-14.3-30.6-32s13.7-32 30.6-32h30.6c39.4 0 66.4-41.7 51.6-80l-15-151.6c-29-135.6-107.7-147.8-141.2-147.8h-84.7c-21.1 0-42.1 19.1-31.2 38l9.4 16.4 11.9 20.8 15.3 26.7c0 35.4-27.4 64.1-61.3 64.1H134.1c-18.8 0-35.6-8.8-46.8-22.7-13.2-16.3-1.8-41.3 18.6-41.3h28.2L55.7 312C40.3 289.4 32 262.29999999999995 32 234.5v-64.1h0.5c5.3-95.2 80.7-170.8 173.1-170.8 85.4 0 156.3 64.5 170.7 149.4h271.3c14.5-84.9 85.3-149.4 170.7-149.4 95.9 0 173.6 81.2 173.6 181.5 0 96.9-72.6 176.5-164 181.7l-13.3 5.1c-24.2 9.3-38.6 35.3-34.2 61.9l36.2 218.8c0.6 3.4 1.8 6.6 3.4 9.6 3 5.8 5.4 12.1 6.8 18.8 0.3 1.5 1.8 13.1 1.8 16.5 0 41.4-32 74.8-71.5 74.8z m61.3-619.2c-16.9 0-30.6 14.4-30.6 32 0 17.7 13.7 32 30.6 32 16.9 0 30.6-14.3 30.6-32 0-17.6-13.7-32-30.6-32z m-612.8 0c-16.9 0-30.6 14.4-30.6 32 0 17.7 13.7 32 30.6 32 16.9 0 30.6-14.3 30.6-32 0.1-17.6-13.7-32-30.6-32z m150 587H168.3c-37.9 0-79.8-46.4-79.8-86v-118.3h338.8V650.1c0 45.3-28.3 86-71.7 86z"  horiz-adv-x="1024" />

    
    <glyph glyph-name="xiaochengxu" unicode="&#58905;" d="M626.176 616.448c74.24 0 134.656-55.808 134.656-124.928 0-21.504-6.144-42.496-17.408-61.44-16.896-27.648-44.032-48.128-76.8-57.856-8.704-2.56-15.36-3.584-21.504-3.584-14.336 0-25.6 11.264-25.6 25.6s11.264 25.6 25.6 25.6c1.024 0 3.072 0 5.632 1.024 22.016 6.144 39.424 18.944 49.152 35.84 6.656 10.752 9.728 22.528 9.728 34.816 0 40.448-37.376 73.728-82.944 73.728-15.872 0-31.232-4.096-45.056-11.776-24.064-13.824-38.4-36.864-38.4-61.952v-214.528c0-43.52-24.064-83.456-64-105.984-21.504-12.288-45.568-18.432-70.144-18.432-74.24 0-134.656 55.808-134.656 124.928 0 21.504 6.144 42.496 17.408 61.44 16.896 27.648 44.032 48.128 76.8 57.856 9.216 2.56 15.36 3.584 21.504 3.584 14.336 0 25.6-11.264 25.6-25.6s-11.264-25.6-25.6-25.6c-1.024 0-3.072 0-5.632-1.024-22.016-6.656-39.424-19.456-49.152-35.84-6.656-10.752-9.728-22.528-9.728-34.816 0-40.448 37.376-73.728 83.456-73.728 15.872 0 31.232 4.096 45.056 11.776 24.064 13.824 38.4 36.864 38.4 61.952V491.52c0 43.52 24.064 83.456 64 105.984 20.992 12.8 45.056 18.944 69.632 18.944z m-520.704-230.4c0-226.304 183.296-409.6 409.6-409.6s409.6 183.296 409.6 409.6-183.296 409.6-409.6 409.6-409.6-183.296-409.6-409.6z m-51.2 0c0 254.464 206.336 460.8 460.8 460.8s460.8-206.336 460.8-460.8-206.336-460.8-460.8-460.8-460.8 206.336-460.8 460.8z m0 0"  horiz-adv-x="1024" />

    
    <glyph glyph-name="sr_jingdong" unicode="&#58880;" d="M512-66C263.48046875-66 62 135.48046875 62 384S263.48046875 834 512 834s450-201.48046875 450-450-201.48046875-450-450-450z m95.10029297 240.00029297c112.79970703 0 204.3 100.58994141 204.3 224.66953125 0 124.05058594-91.50029297 224.63964844-204.3 224.63964844H470.83994141v-449.30917969h136.23046875z m-367.88994141 0c90.29882813 0 163.49941406 71.00947266 163.49941407 158.57929687V623.3103515600001h-54.47988282V332.61035156c0-58.41035156-48.77929688-105.75-108.98964843-105.75h-27.23994141v-52.86005859h27.23994141zM607.10029297 570.45029297h-81.78046875v-343.56005859h81.75058594c82.76923828 0 149.85 76.92011719 149.85 171.77958984S689.83964844 570.45117188 607.07041016 570.45117188z"  horiz-adv-x="1024" />

    
    <glyph glyph-name="fukuan" unicode="&#58926;" d="M208.3 640h79.97v-256.01H208.3zM336.25 640h47.98v-256.01h-47.98zM432.21 640h79.97v-256.01h-79.97zM560.16 640h127.95v-256.01H560.16zM736.09 640h79.97v-256.01h-79.97zM208.3 288h79.97v-160H208.3zM336.25 288h47.98v-160h-47.98zM432.21 288h79.97v-160h-79.97zM560.16 288h127.95v-160H560.16zM736.09 288h79.97v-160h-79.97zM942.78 352H81.58c-9.51 0-17.22-7.16-17.22-16s7.71-16 17.22-16h861.2c9.52 0 17.22 7.16 17.22 16s-7.7 16-17.22 16zM900 832H773.16a34.34 34.34 0 0 1 0-68.59h84a34.29 34.29 0 0 0 34.28-34.3v-84a34.33 34.33 0 0 1 68.57 0V772A60 60 0 0 1 900 832zM98.28 612.46a34.34 34.34 0 0 1 34.29 32.64v84a34.29 34.29 0 0 0 34.28 34.3h83.94a34.34 34.34 0 0 1 0 68.59H124a60 60 0 0 1-60-60V645.1a34.32 34.32 0 0 1 34.28-32.64zM250.81 4.590000000000032h-84a34.29 34.29 0 0 0-34.28 34.3v82.42A34.32 34.32 0 0 1 64 123.48000000000002V-4a60 60 0 0 1 60-60h126.8a34.34 34.34 0 0 1 0 68.59zM925.68 155.53999999999996a34.33 34.33 0 0 1-34.25-32.15v-84.5a34.29 34.29 0 0 0-34.28-34.3h-84a34.34 34.34 0 0 1 0-68.59H900a60 60 0 0 1 60 60V121.55999999999995a34.33 34.33 0 0 1-34.32 33.98z"  horiz-adv-x="1024" />

    
    <glyph glyph-name="qq" unicode="&#59337;" d="M512 780.9c66.5 0 129.8-24.2 178.2-68 47.8-43.3 76.6-101.6 81.1-164.3l0.8-10.6 5-9.3c4.9-9.2 7.6-21 7.6-33.2v-1.8l-0.2-10.7 4.1-9.8c2.5-6 4.9-12 6.9-17.9l4.1-11.8 9.1-8.5c23.6-21.9 43.6-58.4 54.8-100 8-29.9 10-65.1 5.4-96.6-3.1-21.3-8.5-36-12.8-44.1-7.2 2.4-16.3 6.3-26.3 12.3l-41 24.6-26.4-39.9c-3.1-4.7-6.4-9.4-9.7-13.8l-31.6-42.3 44-29.2c20.3-13.5 31.9-29.5 31.9-44 0-15.3-12.8-32.1-35.1-46-29.5-18.4-71.4-29-114.9-29-41.5 0-80.6 9.3-110.1 26.2L512 27.5l-24.8-14.2c-29.5-16.9-68.6-26.2-110.1-26.2-43.5 0-85.4 10.6-114.9 29-22.3 13.9-35.1 30.7-35.1 46 0 14.4 11.6 30.5 31.9 44l44 29.2-31.6 42.3c-3.3 4.4-6.6 9.1-9.7 13.8l-26.4 39.9-41-24.6c-10.1-6-19.1-9.9-26.3-12.3-4.2 8-9.7 22.7-12.8 44.1-4.6 31.5-2.6 66.7 5.4 96.6 11.2 41.6 31.1 78.1 54.8 100l9.1 8.5 4.1 11.8c2 5.9 4.4 11.9 6.9 17.9l4.1 9.8-0.2 10.6v1.8c0 12.2 2.7 23.9 7.6 33.2l5 9.3 0.8 10.6c4.5 62.7 33.3 121.1 81.1 164.3 48.3 43.8 111.6 68 178.1 68m0 50c-163.8 0-297.9-123-309.2-278.7-8.5-15.9-13.5-35.5-13.5-56.6v-2.8c-2.9-6.9-5.6-13.8-8-20.9-29.3-27.2-54.9-71.1-69.1-123.7-25.4-94.8 3.2-206.4 48-206.4 1.8 0 3.7 0.2 5.5 0.6 16 3.2 35 10.2 54.2 21.7 3.6-5.5 7.4-10.8 11.3-16.1-33.6-22.4-54.3-52.5-54.3-85.6 0-69 89.5-125 200-125 52 0 99.4 12.4 135 32.8 35.6-20.3 82.9-32.8 135-32.8 110.5 0 200 56 200 125 0 33.1-20.6 63.2-54.3 85.6 3.9 5.3 7.7 10.6 11.3 16.1 19.2-11.5 38.2-18.5 54.2-21.7 1.9-0.4 3.7-0.6 5.5-0.6 44.8 0 73.4 111.6 48 206.4-14.1 52.7-39.7 96.5-69.1 123.7-2.5 7.1-5.2 14.1-8 20.9v2.8c0 21.2-5 40.7-13.5 56.6C809.9 707.9 675.8 830.9 512 830.9z"  horiz-adv-x="1024" />

    
    <glyph glyph-name="gongzhonghao" unicode="&#59189;" d="M621.105 406.209c40.778 32.161 66.87 81.92 66.87 137.747 0 96.726-78.643 175.37-175.37 175.37s-175.37-78.643-175.37-175.37c0-55.827 26.214-105.586 66.87-137.747-36.895-14.563-70.755-36.773-99.638-65.658-55.584-55.584-86.167-129.494-86.167-208.138 0-16.262 0-33.618 0.122-49.637s13.107-29.006 29.127-29.006h530.235c16.02 0 29.127 12.986 29.127 29.006v49.637c0 78.643-30.583 152.554-86.167 208.138-28.884 28.884-62.745 51.094-99.638 65.658zM395.491 543.956c0 64.565 52.55 117.115 117.115 117.115s117.115-52.55 117.115-117.115-52.55-117.115-117.115-117.115c-64.565-0.122-117.115 52.55-117.115 117.115z m353.167-412.148v-19.782H276.557v20.389c0 130.222 105.95 236.051 236.051 236.051 130.222 0 236.051-105.828 236.051-236.051v-0.607zM871.477 350.01800000000003c-21.482 28.763-49.274 52.55-80.828 69.42 26.457 26.7 41.748 62.988 41.748 101.945 0 32.161-10.316 62.501-29.733 87.988-18.811 24.515-45.511 42.841-75.124 51.337-12.865 3.641-26.336-3.762-29.977-16.626s3.762-26.336 16.626-29.977c41.021-11.773 69.783-49.881 69.783-92.721 0-36.53-20.268-69.42-52.793-86.047-8.738-4.491-13.957-13.836-13.229-23.666 0.85-9.83 7.524-18.205 16.869-21.117 81.556-25.607 136.291-100.246 136.291-185.685v-40.778c0-13.349 10.801-24.272 24.151-24.394h0.122c13.349 0 24.272 10.801 24.272 24.151v40.899c-0.122 52.793-16.748 103.037-48.181 145.271z m-586.062 40.414c9.467 2.913 16.142 11.286 16.869 21.117 0.85 9.83-4.369 19.175-13.229 23.666-32.526 16.626-52.793 49.516-52.793 86.047 0 42.841 28.641 80.949 69.783 92.721 12.865 3.762 20.268 17.113 16.626 29.977-3.762 12.865-17.113 20.268-29.977 16.626-29.613-8.496-56.313-26.821-75.124-51.337-19.419-25.486-29.733-55.827-29.733-87.988 0-38.958 15.292-75.245 41.748-101.945-31.434-16.869-59.346-40.656-80.828-69.42-31.554-42.235-48.181-92.479-48.181-145.271v-40.899c0-13.349 10.923-24.151 24.272-24.151h0.122c13.349 0 24.272 10.923 24.151 24.394v40.778c0 85.561 54.855 160.199 136.291 185.685z"  horiz-adv-x="1024" />

    
    <glyph glyph-name="weixinzhifu" unicode="&#58892;" d="M175.4 63.200000000000045l19 48.7c13.8 35.4 25.1 74.1 26.1 88.9-71.5 58.7-110.8 135.8-110.8 217.8 0 173.5 178.9 314.6 398.8 314.6s398.8-141.1 398.8-314.6S728.4 104 508.5 104c-50.5 0-99.6 7.3-146.1 21.7-16.6-2.1-83.1-24.2-137.9-44.5l-49.1-18z m183.9 63.5z m149.2 559.5c-194 0-351.8-120-351.8-267.6 0-69.4 35-135.3 98.7-185.6 8.3-6.5 22.6-17.8-0.3-90.7 100 35 111.7 31.3 118.4 29.2 42.8-13.6 88.2-20.5 135-20.5 194 0 351.8 120 351.8 267.6S702.5 686.2 508.5 686.2zM796 514.1l-107-26.5c-2.5-0.6-4.9-1.6-7.1-2.8L428 341.70000000000005c-10-5.6-22.5-4.7-31.5 2.5l-106.8 84.9c-5.2 4.1-11.7 6.3-18.4 6.1l-25.1-0.7 138.6-153.7c9.2-10.2 24.5-12.3 36.2-4.9l375 238.2z"  horiz-adv-x="1024" />

    
    <glyph glyph-name="qianbao" unicode="&#58909;" d="M1044.851565 797.072648h-141.100819A114.213274 114.213274 0 0 1 790.791702 896h-674.148358A114.213274 114.213274 0 0 1 2.978795 781.8651150000001v-87.952844A130.439868 130.439868 0 0 1 0 666.397612v-663.722576a130.831815 130.831815 0 0 1 130.675036-130.675036h914.176529a130.831815 130.831815 0 0 1 130.675037 130.675036V666.397612a130.831815 130.831815 0 0 1-130.675037 130.675036zM117.11368 854.532037h674.148358a73.137258 73.137258 0 0 0 71.412692-57.851336H130.675036a129.969532 129.969532 0 0 1-86.228278-33.080303v18.264717a73.137258 73.137258 0 0 0 72.666922 72.666922z m1011.692873-650.631555H771.194366a130.322284 130.322284 0 1 0 0 260.644569h357.690576zM771.194366 511.892215a177.355891 177.355891 0 1 1 0-354.711782h357.690576v-154.505397a83.719819 83.719819 0 0 0-84.033377-83.56304H130.675036A83.719819 83.719819 0 0 0 47.033606 2.7534259999999904V666.397612a83.719819 83.719819 0 0 0 83.64143 83.64143h914.176529A83.719819 83.719819 0 0 0 1128.806553 666.397612V511.892215zM774.094771 334.575519m-39.194671 0a39.194672 39.194672 0 1 1 78.389343 0 39.194672 39.194672 0 1 1-78.389343 0Z"  horiz-adv-x="1175" />

    
    <glyph glyph-name="xinyongqia" unicode="&#58942;" d="M1302.02566 896H118.049811A118.146415 118.146415 0 0 1 0 778.046792v-787.900377a118.146415 118.146415 0 0 1 118.049811-118.049811h1183.975849A118.146415 118.146415 0 0 1 1420.075472-9.950189000000023V778.046792A118.146415 118.146415 0 0 1 1302.02566 896zM1362.113208-9.950189000000023a60.184151 60.184151 0 0 0-60.087548-60.087547H118.049811A60.087547 60.087547 0 0 0 57.962264-9.950189000000023V586.867925h1304.150944zM1362.113208 644.830189H57.962264V778.046792a60.087547 60.087547 0 0 0 60.087547 60.087548h1183.975849a60.184151 60.184151 0 0 0 60.087548-60.087548zM764.135849 190.88905699999998a28.981132 28.981132 0 0 1 37.675472 16.036226L895.22717 432.301887a28.981132 28.981132 0 1 1-53.518491 22.218868l-93.415849-225.376604a28.981132 28.981132 0 0 1 15.843019-38.255094zM927.396226 190.88905699999998a28.981132 28.981132 0 0 1 37.675472 16.036226L1058.487547 432.301887a29.048755 29.048755 0 1 1-53.808302 21.929056l-93.415849-225.376603A28.981132 28.981132 0 0 1 927.396226 190.88905699999998zM1090.366792 190.88905699999998a28.981132 28.981132 0 0 1 37.86868 15.649811l93.415849 225.376604a28.981132 28.981132 0 1 1-53.518491 22.218868l-93.415849-225.376604a28.981132 28.981132 0 0 1 15.649811-37.868679z"  horiz-adv-x="1420" />

    
    <glyph glyph-name="qunliao" unicode="&#59024;" d="M782-68.10000000000002c-17.7 0-32.1 14.4-32.1 32.1 0 189.1-153.8 342.9-342.9 342.9S64.2 153 64.2-36.10000000000002c0-17.7-14.4-32.1-32.1-32.1C14.4-68.10000000000002 0-53.799999999999955 0-36.10000000000002c0 54.9 10.8 108.2 32 158.4 20.5 48.5 49.8 92 87.2 129.4s80.9 66.7 129.4 87.2c50.2 21.2 103.5 32 158.4 32s108.2-10.8 158.4-32c48.5-20.5 92-49.8 129.4-87.2s66.7-80.9 87.2-129.4c21.2-50.2 32-103.5 32-158.4 0-17.7-14.3-32-32-32zM720.3 323.20000000000005c-13.3 0-25.8 8.4-30.4 21.7-5.7 16.8 3.2 35 20 40.7 83.7 28.6 137.8 96.7 137.8 173.4 0 87.9-73.3 164.8-174.2 182.8-17.4 3.1-29.1 19.8-26 37.2s19.8 29.1 37.2 26c62.6-11.2 119.7-41.2 160.9-84.7 42.7-45 66.2-102.3 66.2-161.3 0-52.2-17.9-102.2-51.7-144.7-32.4-40.7-77.2-71.6-129.5-89.5-3.4-1.1-6.9-1.6-10.3-1.6zM991.9 6.600000000000023c-17.7 0-32.1 14.4-32.1 32.1 0 151.9-123.6 275.4-275.4 275.4-17.7 0-32.1 14.4-32.1 32.1s14.4 32.1 32.1 32.1c45.8 0 90.3-9 132.2-26.7 40.4-17.1 76.8-41.6 107.9-72.8 31.2-31.2 55.7-67.5 72.8-107.9 17.7-41.9 26.7-86.4 26.7-132.2 0-17.7-14.4-32.1-32.1-32.1zM407 766.9c52.9 0 102.6-20.6 140-58 37.4-37.4 58-87.1 58-140s-20.6-102.6-58-140c-37.4-37.4-87.1-58-140-58s-102.6 20.6-140 58-58 87.1-58 140 20.6 102.6 58 140 87.1 58 140 58m0 64c-144.7 0-262-117.3-262-262s117.3-262 262-262 262 117.3 262 262-117.3 262-262 262z"  horiz-adv-x="1024" />

    
    <glyph glyph-name="ico" unicode="&#58951;" d="M742.8 774.5c-2.3-0.3-4.7-0.1-7-0.1-38 0-76 0.1-114-0.1-11 0-21.9-1.4-32.4-5.1-18.6-6.5-29.8-19.5-34.4-38.4-1.7-7-2.4-14.1-2.4-21.3 0-67.2-0.1-134.3 0.1-201.5 0-13.8 0.9-27.6 6.2-40.8 6.9-17.1 19.7-27.2 37.3-31.7 6.3-1.6 12.8-2.2 19.3-2.2h218c8.3 0 16.6 0.7 24.8 2.3 24.4 4.5 40.4 20.7 44.9 45 0.4 2.2-0.4 5.2 2.9 6.2v232c-0.4 0.4-0.5 0.9-0.5 1.5-1.5 4.8-1.7 9.8-3.3 14.7-7.1 21-21.7 33.4-42.8 38.8-6.4 1.6-12.8 2.4-19.5 2.1-1.3-0.1-3-1-3.9 0.9h-89c-0.4-2.6-2.7-2.1-4.3-2.3z m98.7-40.7c4 0 8.1-0.9 11.9-2.1 6.9-2.2 10.7-7.6 10.7-15.1 0-74.8 0.1-149.6-0.1-224.4 0-11.2-8.6-18-21.1-18.1-38.2-0.3-76.3-0.1-114.5-0.1h-113c-4.5 0-8.6 1.3-12.7 2.7-8.5 3.1-9.6 10.5-9.7 17.9-0.2 37.5-0.1 75-0.1 112.5V712.6c0 6.5 1.5 12.5 6.9 17 4.6 3.8 10.3 4.3 15.6 4.3 75.4 0.1 150.8 0 226.1-0.1zM742 776c-39.5-0.1-79-0.1-118.4-0.1-9.4 0-18.6-1-27.7-3.1-11.6-2.7-22.1-7.7-30-16.7-10.6-12.1-14.8-26.9-14.8-42.6-0.2-69.6-0.2-139.3 0-208.9 0-9.1 0.7-18.3 2.8-27.2 2.8-11.7 7.6-22.5 16.7-30.5 11.7-10.3 25.9-15 41.5-15 74.1-0.1 148.3-0.1 222.4 0 9.3 0 18.7 0.5 27.7 3 19 5.4 33.6 15.9 40 35.8 1.7 5.3 1.8 10.9 3.8 16.1-3.2-1-2.5-4-2.9-6.2-4.5-24.4-20.5-40.5-44.9-45-8.2-1.5-16.5-2.3-24.8-2.3h-218c-6.5 0-13 0.6-19.3 2.2-17.5 4.5-30.4 14.6-37.3 31.7-5.3 13.1-6.2 27-6.2 40.8-0.2 67.2-0.1 134.3-0.1 201.5 0 7.2 0.7 14.3 2.4 21.3 4.6 18.9 15.8 31.9 34.4 38.4 10.5 3.7 21.4 5 32.4 5.1 38 0.2 76 0.1 114 0.1 2.3 0 4.7-0.2 7 0.1 1.7 0.2 3.9-0.2 4.2 2.4-1.2-2.1-3.2-0.9-4.9-0.9zM120.6 485.7c2-12.5 5.5-24.4 14.3-34 11.5-12.7 26.5-18 43-18.1 75.1-0.3 150.2-0.3 225.4 0 9.4 0 18.9 1 28.1 3.9 24.5 7.7 39.1 27.3 39.1 53.1 0 74 0 147.9 0.1 221.9 0 6.4-0.8 12.6-2.4 18.8-5.8 22.4-24.5 39.1-47.5 42.3-4.1 0.6-8.2 1.1-12.4 1.1-2 0-4.5-0.6-5.2 2.4h-89c-1.3-2.1-3.3-0.9-4.9-0.9-41.1-0.1-82.2 0.2-123.3-0.2-14.8-0.1-29.2-2.6-42.2-10.7-12.5-7.8-19.8-19.1-23.7-33-0.8-2.7-0.2-5.7-1.9-8.2v-233c2.9-0.9 2.2-3.5 2.5-5.4z m39.5 231c0 8.1 6.2 14.6 14.5 16.3 4.4 0.9 8.8 1 13.2 1h219c4.3 0 8.4-0.8 12.4-2 7.5-2.4 10.8-6.9 10.8-14.6v-225.5c0-8.2-3.8-13.3-11.6-15.9-4-1.3-8.1-2.1-12.4-2-37.2 0.1-74.3 0.1-111.5 0.1-37.7 0-75.3-0.1-113 0.1-6.3 0-12.6 0.9-17.3 6.1-2.7 3-4.1 6.3-4.1 10.1-0.1 75.3-0.1 150.8 0 226.3zM119 488.5c0.1-8.9 2.6-17.3 6.4-25.1 10.4-21.4 28.9-31 51.6-31.2 74.5-0.6 149-0.2 223.4-0.2 9.3 0 18.6 0.8 27.7 3 27.1 6.7 43.6 26.4 43.8 54.4 0.5 73.8 0.2 147.6 0.2 221.4 0 4.9 0 9.8-0.9 14.7-3 16.2-10.7 29.4-24.2 39-11 7.8-23.5 11-36.9 11.4-2.3 0.1-4.9-1.2-6.9 0.9 0.7-3 3.3-2.4 5.2-2.4 4.2 0 8.3-0.6 12.4-1.1 23-3.2 41.7-19.9 47.5-42.3 1.6-6.2 2.4-12.4 2.4-18.8-0.1-74 0-147.9-0.1-221.9 0-25.7-14.6-45.3-39.1-53.1-9.2-2.9-18.7-3.9-28.1-3.9-75.1-0.2-150.2-0.3-225.4 0-16.5 0.1-31.4 5.4-43 18.1-8.8 9.7-12.3 21.5-14.3 34-0.3 1.9 0.4 4.6-2.6 5.2 1.3-0.1 0.9-1.3 0.9-2.1zM191.8 13.299999999999955c2.1 0.3 4.3 0.1 6.5 0.1h206c8.4 0 16.6 1 24.7 3.1 25.5 6.6 41.4 26.9 41.5 53.2 0.1 25.3 0 50.7 0 76v148c0 32.3-21.4 56.2-53.6 59.7-11.4 1.2-22.9 1.7-34.4 2-34.5 0.7-69-0.5-103.4-1.3-33-0.8-66-0.2-98.9-0.7-11.5-0.2-22.6-2.7-32.7-8.1-13.6-7.2-21.9-18.5-25.7-33.4-0.7-2.8-0.1-6.5-3.7-8v-234c2-5.5 2.2-11.4 3.9-17.1 5.9-20.7 19.4-33.3 39.8-38.9 6.5-1.8 13.2-2.3 19.9-2.1 1.4 0 3.3 1.1 4.4-0.9h2c0.2 2.3 2.1 2.2 3.7 2.4z m-11.4 40.6c-12.2 0-20.7 6.6-20.6 20.5 0.4 73.3 0.2 146.6 0.1 220 0 11.8 7 18.1 18.3 18.5 74.6 2.4 149.1 0.5 223.7 0.8 6.4 0 13.4 0.4 19.6-3 5.4-3 8.5-7.2 8.5-13.7-0.1-37.5 0-75 0-112.5 0-37.2-0.2-74.3 0.1-111.5 0.1-12.1-7.8-17.6-18.7-19.3-8.6-1.3-17 0-25.5 0.1-68.5 0.2-137 0.1-205.5 0.1zM193.5 11.799999999999955c67.8 0.1 135.7 0.1 203.5 0 9.4 0 18.7 0.2 28 2.1 12.5 2.5 23.8 7.8 32.5 17.1 9.7 10.4 14.5 23.4 14.5 37.6 0.2 74.3 0.1 148.7 0.1 223 0 6.3-0.4 12.4-2 18.5-5.3 19.9-17.3 33.7-36.7 41.3-13.3 5.2-27.3 5-41 5.3-23.1 0.5-46.2 0.9-69.3-0.5-19-1.2-38.2-0.3-57.3-1-27.6-0.9-55.3-0.3-83-0.2-6.4 0-12.7-0.6-19-2-18.4-4.2-32.5-13.8-40.6-31.3-2.6-5.7-2.8-12-5.2-17.7 3.7 1.5 3 5.2 3.7 8 3.8 14.9 12.2 26.2 25.7 33.4 10.2 5.4 21.2 7.9 32.7 8.1 33 0.5 65.9-0.1 98.9 0.7 34.5 0.8 68.9 2 103.4 1.3 11.5-0.2 23-0.7 34.4-2 32.2-3.5 53.5-27.4 53.6-59.7v-148c0-25.3 0.1-50.7 0-76-0.2-26.4-16-46.6-41.5-53.2-8.1-2.1-16.3-3.1-24.7-3.1h-206c-2.2 0-4.3 0.1-6.5-0.1-1.6-0.2-3.5 0-3.7-2.4 1.5 1.9 3.7 0.8 5.5 0.8zM143.6 765.1c13 8 27.4 10.6 42.2 10.7 41.1 0.4 82.2 0.1 123.3 0.2 1.6 0 3.6-1.2 4.9 0.9-1.7-1-3.6-0.5-5.4-0.5-44.8-0.3-89.6 0.8-134.4-0.6-18.9-0.6-34.9-8.1-46.5-23.6-6.3-8.4-9.1-18-9.7-28.3 1.8 2.4 1.2 5.4 1.9 8.2 4 13.9 11.2 25.2 23.7 33zM840 776c6.6 0.3 13.1-0.5 19.5-2.1 21-5.4 35.7-17.8 42.8-38.8 1.6-4.8 1.8-9.9 3.3-14.7v0.4c0.4 28.1-24.4 53.2-52.7 55.3-5.6 0.4-11.2-0.5-16.8 0.9 0.8-2.1 2.6-1.1 3.9-1zM181.6 11.799999999999955c-6.7-0.2-13.4 0.3-19.9 2.1-20.4 5.6-33.9 18.2-39.8 38.9-1.6 5.7-1.8 11.6-3.9 17.1 1.1-5.3 0.8-10.8 2.1-16.1 5.5-22.8 25.5-40.6 48.6-42 5.8-0.4 11.6 0.6 17.3-0.8-1.1 1.9-3 0.9-4.4 0.8zM608.4 228.79999999999995c-12.3-0.2-20.4-8.3-20.4-20V37c0-12.3 8.5-20.1 20.8-19.9 12.9 0.2 21 6.9 21.1 19.7 0.2 57.4 0.1 114.9 0 172.3 0 12-8.4 19.9-21.5 19.7zM861.4 228.60000000000002c-9.9 1.8-23.3-4.9-23.3-18.2-0.2-29.2 0-58.3 0-87.5v-87c0-1.6-0.1-3.4 0.4-4.9 3.3-9.4 14.4-16.2 23.5-14 11.4 2.7 17.9 7.2 18 21.4 0.2 55.5 0.1 111 0.1 166.5-0.1 14.4-4.6 21.1-18.7 23.7zM768.7 168.70000000000005c-2.6 9.4-13 16.8-22.1 15.1-12.4-2.4-19.4-6.6-19.5-20.9-0.3-41.1-0.1-82.3-0.1-123.4 0-13.8 5.7-20 17.5-22.2 11.1-2.1 24.4 4.5 24.5 19.1v63.5 64.5c0 1.3 0 2.9-0.3 4.3zM741 351.20000000000005c-8.7-1.9-14-10.2-14-19.8V243c0-13.1 4-21 18.1-23.7 10.3-1.9 24 5.2 23.9 18.5-0.1 15.8 0 31.6 0 47.5 0 15.3-0.2 30.6 0 46 0.3 19-14.6 22.8-28 19.9zM622 348.6c-4.9 3.4-10.1 3.3-15.4 3.3-10.5 0-18.5-7.9-18.5-18.3v-26c0-9-0.1-18 0-27 0.1-4.6 1.3-8.7 4.9-12.3 5.2-5.2 11.2-6.7 18.2-6.5 9.9 0.3 18.8 8.9 18.8 18.7 0.1 17.7 0.2 35.3-0.1 53 0 6.1-2.4 11.3-7.9 15.1zM878.3 340.1c-2.2 6.2-9.8 11.8-17.9 12-14.3 0.5-23.6-7.9-22.5-22.8 0.5-7 0.1-14 0.1-21v-25c0-1.5 0-3 0.4-4.4 3.2-10.3 12.9-15.5 23.9-14 11 1.6 17.4 8.4 17.6 19.7 0.3 15.8 0.1 31.7 0.1 47.5 0 2.9-0.8 5.5-1.7 8zM352 638.2c-1.9 7.3-7.9 12.7-15.4 13.7-1.3 0.2-2.7 0.4-4 0.4-0.6 0-1.5-0.2-1.7 0.8h-28.8c-0.4-0.7-1.1-0.3-1.6-0.3-13.3 0-26.6 0.1-39.9-0.1-4.8 0-9.5-0.9-13.7-3.5-4.1-2.5-6.4-6.2-7.7-10.7-0.2-0.9 0-1.9-0.6-2.6v-75.5c1-0.2 0.7-1.1 0.8-1.7 0.7-4.1 1.8-7.9 4.6-11 3.7-4.1 8.6-5.8 13.9-5.9 24.3-0.1 48.7-0.1 73 0 3.1 0 6.1 0.3 9.1 1.3 7.9 2.5 12.7 8.9 12.7 17.2v71.9c0.1 2-0.2 4-0.7 6zM785.5 645.9c-1.9 7.3-7.9 12.7-15.4 13.7-1.3 0.2-2.7 0.4-4 0.4-0.6 0-1.5-0.2-1.7 0.8h-28.8c-0.4-0.7-1.1-0.3-1.6-0.3-13.3 0-26.6 0.1-39.9-0.1-4.8 0-9.5-0.9-13.7-3.5-4.1-2.5-6.4-6.2-7.7-10.7-0.2-0.9 0-1.9-0.6-2.6v-75.5c1-0.2 0.7-1.1 0.8-1.7 0.7-4.1 1.8-7.9 4.6-11 3.7-4.1 8.6-5.8 13.9-5.9 24.3-0.1 48.7-0.1 73 0 3.1 0 6.1 0.3 9.1 1.3 7.9 2.5 12.7 8.9 12.7 17.2v71.9c0.2 2-0.2 4.1-0.7 6zM351.4 219.39999999999998c-1.9 7.3-7.9 12.7-15.4 13.7-1.3 0.2-2.7 0.4-4 0.4-0.6 0-1.5-0.2-1.7 0.8h-28.8c-0.4-0.7-1.1-0.3-1.6-0.3-13.3 0-26.6 0.1-39.9-0.1-4.8 0-9.5-0.9-13.7-3.5-4.1-2.5-6.4-6.2-7.7-10.7-0.2-0.9 0-1.9-0.6-2.6v-75.5c1-0.2 0.7-1.1 0.8-1.7 0.7-4.1 1.8-7.9 4.6-11 3.7-4.1 8.6-5.8 13.9-5.9 24.3-0.1 48.7-0.1 73 0 3.1 0 6.1 0.3 9.1 1.3 7.9 2.5 12.7 8.9 12.7 17.2v71.9c0.1 2-0.2 4-0.7 6z"  horiz-adv-x="1024" />

    
    <glyph glyph-name="yaoyiyao" unicode="&#58893;" d="M575.3-55c-7.8 0-15.5 1.2-23.2 3.6L221.7 55.1c-39.5 12.7-61.3 55.2-48.6 94.7L307 565.4c5.6 17.5 24.5 27.1 41.8 21.4 17.5-5.6 27.1-24.3 21.4-41.8L236.3 129.4c-1.5-4.6 1.1-9.6 5.7-11.1l330.4-106.5c2.9-0.9 5.3-0.2 6.7 0.6 1.5 0.8 3.4 2.3 4.3 5.1l33.9 107.2 169.1 522.9c1.5 4.6-1 9.6-5.7 11.1L450.4 765.2c-2.9 0.9-5.2 0.2-6.7-0.6s-3.4-2.3-4.3-5.1L412 674.3c-5.6-17.5-24.3-27.2-41.8-21.4-17.5 5.6-27.1 24.3-21.4 41.8l27.4 85.2c6.2 19.1 19.4 34.7 37.3 43.9s38.3 10.8 57.4 4.7L801.3 722c39.5-12.7 61.2-55.2 48.6-94.7l-203-630c-6.2-19.3-19.4-34.9-37.3-44.1-10.8-5.4-22.5-8.2-34.3-8.2zM650.5 628c-1.7 0-3.4 0.3-5.1 0.8l-102.4 33c-8.7 2.8-13.5 12.2-10.7 20.9 2.8 8.7 12.2 13.4 20.9 10.7l102.4-33c8.7-2.8 13.5-12.2 10.7-20.9-2.3-7.1-8.8-11.5-15.8-11.5zM626.9 85c-1.7 0-3.4 0.3-5.1 0.8L245.2 207.1c-8.7 2.8-13.5 12.2-10.7 20.9 2.8 8.7 12.3 13.4 20.9 10.7L632 117.4c8.7-2.8 13.5-12.2 10.7-20.9-2.3-7-8.8-11.5-15.8-11.5zM415.557092 90.848193a18.9 18.9 0 1 1 11.589826 35.979382 18.9 18.9 0 1 1-11.589826-35.979382ZM853.4 430.8c-1.2 0-2.5 0.2-3.8 0.6-6.6 2.1-10.2 9.1-8.1 15.7L903 640.5c3 9.5 2.7 19.3-0.8 27.6-3.3 7.8-9.1 13.3-16.4 15.6-6.6 2.1-10.2 9.1-8.1 15.7 2.1 6.6 9.2 10.1 15.7 8 14.2-4.6 25.4-15 31.7-29.5 5.9-13.9 6.6-29.9 1.7-45l-61.5-193.4c-1.7-5.3-6.6-8.7-11.9-8.7zM886.4 369.7c-1.2 0-2.5 0.2-3.8 0.6-6.6 2.1-10.2 9.1-8.1 15.7L936 579.4c2.1 6.5 9.1 10.2 15.6 8.1 6.6-2.1 10.2-9.1 8.1-15.7l-61.5-193.4c-1.6-5.3-6.5-8.7-11.8-8.7zM134.1 48.8c-1.3 0-2.5 0.2-3.8 0.6-28.6 9.2-43.6 42.6-33.3 74.5l61.5 193.4c2.1 6.5 9.1 10.2 15.6 8.1 6.6-2.1 10.2-9.1 8.1-15.7l-61.5-193.4c-6-18.9 1.7-38.3 17.2-43.3 6.6-2.1 10.2-9.1 8.1-15.7-1.8-5.2-6.6-8.5-11.9-8.5zM75.8 168.7c-1.2 0-2.5 0.2-3.8 0.6-6.6 2.1-10.2 9.1-8.1 15.7l61.5 193.4c2.1 6.5 9.1 10.2 15.6 8.1 6.6-2.1 10.2-9.1 8.1-15.7L87.7 177.4c-1.7-5.3-6.6-8.7-11.9-8.7z"  horiz-adv-x="1024" />

    
    <glyph glyph-name="souyisou" unicode="&#58897;" d="M442.7 559.8c-7.7 0-15.4 1.7-22.7 5.4-25.2 12.6-35.5 43.2-22.9 68.5l82.7 166c12.6 25.2 43.2 35.5 68.5 22.9 25.2-12.6 35.5-43.2 22.9-68.5l-82.7-166c-9-17.9-27-28.3-45.8-28.3zM289.9 546c-21.3 0-41.2 13.5-48.4 34.9l-28.3 84.5c-8.9 26.7 5.5 55.7 32.2 64.6 26.6 8.9 55.6-5.5 64.6-32.2l28.3-84.5c8.9-26.7-5.5-55.7-32.2-64.6-5.3-1.8-10.8-2.7-16.2-2.7zM191.6 428.3c-7.7 0-15.4 1.7-22.7 5.4l-19.1 9.5c-25.2 12.6-35.5 43.2-22.9 68.5 12.6 25.3 43.2 35.5 68.5 23l19.1-9.5c25.2-12.6 35.5-43.2 22.9-68.5-9-18-27.1-28.4-45.8-28.4zM115.4 245.29999999999995c-21.4 0-41.3 13.5-48.4 34.9-8.9 26.7 5.5 55.7 32.2 64.6l90 30.1c26.9 9 55.7-5.5 64.6-32.2 8.9-26.7-5.5-55.7-32.2-64.6l-90-30.1c-5.4-1.8-10.9-2.7-16.2-2.7zM275.8 82.10000000000002c-7.7 0-15.4 1.7-22.7 5.4-25.2 12.6-35.5 43.2-22.9 68.5l47.3 95c12.6 25.2 43.3 35.5 68.5 22.9 25.2-12.6 35.5-43.2 22.9-68.5l-47.3-95c-9-17.9-27.1-28.3-45.8-28.3zM558.9-57c-21.3 0-41.2 13.5-48.4 34.9l-83 247.9c-8.9 26.7 5.5 55.7 32.2 64.6 26.6 8.9 55.6-5.5 64.6-32.2l83-247.9c8.9-26.7-5.5-55.7-32.2-64.6-5.3-1.8-10.8-2.7-16.2-2.7zM902.4 145.10000000000002c-7.7 0-15.4 1.7-22.7 5.4L551.5 314c-25.2 12.6-35.5 43.2-22.9 68.5 12.6 25.3 43.3 35.5 68.5 22.9l328.1-163.5c25.2-12.6 35.5-43.2 22.9-68.5-8.9-17.9-27-28.3-45.7-28.3zM560.5 461.5c-21.3 0-41.2 13.5-48.4 34.9-8.9 26.7 5.5 55.7 32.2 64.6l307.9 103c26.5 8.9 55.6-5.5 64.6-32.2 8.9-26.7-5.5-55.7-32.2-64.6L576.7 464.1c-5.3-1.8-10.8-2.6-16.2-2.6z"  horiz-adv-x="1024" />

    
    <glyph glyph-name="Sale-" unicode="&#60047;" d="M836.266667 76.79999999999995H716.8v102.4h85.333333c10.24 0 17.066667 6.826667 17.066667 17.066667s-6.826667 17.066667-17.066667 17.066666H716.8v102.4h119.466667c10.24 0 17.066667 6.826667 17.066666 17.066667s-6.826667 17.066667-17.066666 17.066667h-136.533334c-10.24 0-17.066667-6.826667-17.066666-17.066667v-273.066667c0-10.24 6.826667-17.066667 17.066666-17.066666h136.533334c10.24 0 17.066667 6.826667 17.066666 17.066666s-6.826667 17.066667-17.066666 17.066667zM631.466667 76.79999999999995H546.133333v256c0 10.24-6.826667 17.066667-17.066666 17.066667s-17.066667-6.826667-17.066667-17.066667v-273.066667c0-10.24 6.826667-17.066667 17.066667-17.066666h102.4c10.24 0 17.066667 6.826667 17.066666 17.066666s-6.826667 17.066667-17.066666 17.066667zM409.6 336.21333300000003c-3.413333 6.826667-6.826667 13.653333-17.066667 13.653334-6.826667 0-13.653333-3.413333-17.066666-13.653334l-85.333334-273.066666c-3.413333-10.24 3.413333-17.066667 10.24-20.48h3.413334c6.826667 0 13.653333 3.413333 17.066666 13.653333l27.306667 92.16h71.68l23.893333-88.746667c3.413333-10.24 10.24-13.653333 20.48-13.653333 10.24 3.413333 13.653333 10.24 13.653334 20.48l-68.266667 269.653333zM361.813333 179.20000000000005l27.306667 92.16 23.893333-92.16h-51.2zM191.146667 213.33333300000004h-6.826667c-23.893333 6.826667-47.786667 17.066667-47.786667 51.2 0 30.72 20.48 51.2 47.786667 51.2 27.306667 0 54.613333-23.893333 54.613333-51.2 0-10.24 6.826667-17.066667 17.066667-17.066666s17.066667 10.24 17.066667 17.066666C269.653333 308.90666699999997 228.693333 349.866667 184.32 349.866667 136.533333 349.866667 102.4 312.32000000000005 102.4 264.53333299999997c0-44.373333 23.893333-71.68 75.093333-85.333333h3.413334c27.306667-6.826667 58.026667-17.066667 58.026666-51.2 0-27.306667-27.306667-51.2-54.613333-51.2-30.72 0-47.786667 27.306667-47.786667 51.2 0 10.24-10.24 17.066667-17.066666 17.066667-10.24 0-17.066667-10.24-17.066667-17.066667 3.413333-47.786667 37.546667-85.333333 81.92-85.333333C232.106667 42.66666699999996 273.066667 80.21333300000003 273.066667 128c0 44.373333-27.306667 71.68-81.92 85.333333zM897.706667 8.53333299999997H126.293333C64.853333 8.53333299999997 0-52.90666699999997 0-110.93333299999995c0-10.24 6.826667-17.066667 17.066667-17.066667h989.866666c10.24 0 17.066667 6.826667 17.066667 17.066667 0 58.026667-64.853333 119.466667-126.293333 119.466666zM170.666667 384c34.133333 0 68.266667 17.066667 85.333333 44.373333C273.066667 401.066667 307.2 384 341.333333 384s68.266667 17.066667 85.333334 44.373333C443.733333 401.066667 477.866667 384 512 384s68.266667 17.066667 85.333333 44.373333C614.4 401.066667 648.533333 384 682.666667 384s68.266667 17.066667 85.333333 47.786667C785.066667 401.066667 819.2 384 853.333333 384c58.026667 0 102.4 44.373333 102.4 102.4v6.826667l-102.4 218.453333v3.413333c-3.413333 6.826667-10.24 10.24-17.066666 10.24h-648.533334c-6.826667 0-13.653333-3.413333-17.066666-10.24l-102.4-221.866666v-6.826667c0-58.026667 44.373333-102.4 102.4-102.4zM836.266667 759.466667c6.826667 0 10.24 0 17.066666-3.413334V793.6c0 58.026667-44.373333 102.4-102.4 102.4H273.066667C215.04 896 170.666667 851.626667 170.666667 793.6v-37.546667c6.826667 3.413333 10.24 3.413333 17.066666 3.413334h648.533334z"  horiz-adv-x="1024" />

    
    <glyph glyph-name="shenghuojiaofei" unicode="&#59031;" d="M349.0816 520.6016C272.2816 445.952 238.933333 388.846933 238.933333 322.45759999999996 238.933333 188.07466699999998 359.970133 76.79999999999995 512 76.79999999999995c152.029867 0 273.066667 111.3088 273.066667 245.6576 0 64.989867-33.3824 122.6752-105.301334 194.218667a7459.4304 7459.4304 0 0 0-168.174933 156.125866 19802.8288 19802.8288 0 0 0-162.5088-152.200533zM512 8.53333299999997c-188.5184 0-341.333333 140.526933-341.333333 313.924267 0 100.317867 57.6512 175.991467 130.798933 247.125333a19230.276267 19230.276267 0 0 1 198.656 186.4704 17.066667 17.066667 0 0 0 23.6544-0.136533 7244.5952 7244.5952 0 0 1 201.693867-188.484267C795.272533 498.0736 853.333333 421.512533 853.333333 322.45759999999996 853.333333 149.06026699999995 700.5184 8.53333299999997 512 8.53333299999997z m-109.568 369.800534l150.698667 162.952533 50.107733-46.353067-98.0992-106.0864 117.9648-84.309333-151.7568-171.144533-51.063467 45.294933 101.444267 114.3808-119.296 85.265067z"  horiz-adv-x="1024" />

    
    <glyph glyph-name="youxi" unicode="&#58888;" d="M919.272727 81.45454500000005V686.545455a11.636364 11.636364 0 0 1-11.636363 11.636363H116.363636a11.636364 11.636364 0 0 1-11.636363-11.636363v-605.09091a11.636364 11.636364 0 0 1 11.636363-11.636363h50.548364a11.636364 11.636364 0 0 1 8.215273 3.397818l135.656727 135.656727a81.454545 81.454545 0 0 0 57.576727 23.854546h287.278546a81.454545 81.454545 0 0 0 57.576727-23.854546l135.656727-135.656727a11.636364 11.636364 0 0 1 8.215273-3.397818H907.636364a11.636364 11.636364 0 0 1 11.636363 11.636363z m-62.184727-81.454545a81.454545 81.454545 0 0 0-57.576727 23.854545l-135.656728 135.656728a11.636364 11.636364 0 0 1-8.215272 3.397818H368.360727a11.636364 11.636364 0 0 1-8.215272-3.397818l-135.656728-135.656728A81.454545 81.454545 0 0 0 166.912 0H116.363636A81.454545 81.454545 0 0 0 34.909091 81.45454500000005V686.545455A81.454545 81.454545 0 0 0 116.363636 768h791.272728A81.454545 81.454545 0 0 0 989.090909 686.545455v-605.09091a81.454545 81.454545 0 0 0-81.454545-81.454545h-50.548364zM302.545455 325.818182a128 128 0 1 0 0 256 128 128 0 0 0 0-256z m0 69.818182a58.181818 58.181818 0 1 1 0 116.363636 58.181818 58.181818 0 0 1 0-116.363636zM800.32785 593.69676m24.684455-24.684455l0 0q24.684455-24.684455 0-49.36891l-181.019336-181.019336q-24.684455-24.684455-49.36891 0l0 0q-24.684455 24.684455 0 49.36891l181.019336 181.019336q24.684455 24.684455 49.36891 0ZM569.939604 544.32785m24.684455 24.684455l0 0q24.684455 24.684455 49.36891 0l181.019336-181.019336q24.684455-24.684455 0-49.36891l0 0q-24.684455-24.684455-49.36891 0l-181.019336 181.019336q-24.684455 24.684455 0 49.36891Z"  horiz-adv-x="1024" />

    
    <glyph glyph-name="gouwu-" unicode="&#58894;" d="M958.464 60.416000000000054L870.4 734.208c-6.144 51.2-51.2 90.112-102.4 90.112H253.952c-51.2 0-94.208-38.912-102.4-90.112L65.536 60.416000000000054c-4.096-28.672 6.144-59.392 24.576-79.872s47.104-34.816 77.824-34.816h690.176c28.672 0 57.344 12.288 77.824 34.816 18.432 22.528 26.624 51.2 22.528 79.872z m-55.296-53.248c-12.288-12.288-28.672-20.48-47.104-20.48H165.888c-18.432 0-34.816 8.192-47.104 20.48-12.288 12.288-16.384 30.72-14.336 49.152L192.512 728.064c4.096 30.72 30.72 53.248 61.44 53.248h516.096c30.72 0 57.344-22.528 61.44-53.248L917.504 56.32000000000005c2.048-18.432-2.048-34.816-14.336-49.152zM714.752 568.3199999999999c-26.624 0-49.152-22.528-49.152-49.152 0-18.432 10.24-32.768 22.528-40.96-18.432-79.872-90.112-141.312-176.128-141.312-86.016 0-157.696 59.392-176.128 141.312 14.336 8.192 22.528 24.576 22.528 40.96 0 26.624-22.528 49.152-49.152 49.152s-49.152-22.528-49.152-49.152c0-22.528 14.336-38.912 32.768-47.104 20.48-100.352 110.592-178.176 217.088-178.176 106.496 0 196.608 75.776 217.088 178.176 18.432 6.144 32.768 24.576 32.768 47.104 4.096 26.624-16.384 49.152-45.056 49.152z"  horiz-adv-x="1024" />

    
    <glyph glyph-name="tianjia" unicode="&#58899;" d="M512-62.799999999999955C265.6-62.799999999999955 65.2 137.60000000000002 65.2 384S265.6 830.8 512 830.8 958.8 630.4 958.8 384 758.4-62.799999999999955 512-62.799999999999955z m0 832c-212.4 0-385.2-172.8-385.2-385.2S299.6-1.2000000000000455 512-1.2000000000000455 897.2 171.60000000000002 897.2 384 724.4 769.2 512 769.2zM727.7 411H542.8V595.8h-61.6V411H296.3v-61.7h184.9v-184.8h61.6V349.29999999999995h184.9z"  horiz-adv-x="1024" />

    
    <glyph glyph-name="weixinxiaoxi-copy" unicode="&#60048;" d="M958.576965 422.219463c0 214.58117-200.676485 389.164371-447.300442 389.164371-246.6434 0-447.300442-174.583201-447.300442-389.164371 0-128.633682 72.203462-247.613494 193.816241-320.504618l0-125.391848c0-7.624654 4.207835-14.626115 10.926864-18.254759 3.066849-1.676176 6.440689-2.476401 9.80532-2.476401 4.01136 0 7.990998 1.160429 11.456936 3.432169l57.085136 37.70781c0.931209 0.603751 1.828648 1.316995 2.65241 2.061962l65.577554 43.680848c32.462343-6.215562 64.719001-9.366322 96.040357-9.366322C757.901503 33.139004 958.576965 207.69559800000002 958.576965 422.219463L958.576965 422.219463 958.576965 422.219463zM511.252986 74.602348c-31.239492 0-63.58927 3.432169-96.17748 10.203386-5.3918 1.160429-11.067057 0.024559-15.70468-3.046383L323.819107 31.446455000000014c-0.892323-0.580215-1.750877-1.261737-2.521426-1.959631l-22.052249-14.563694L299.245432 113.689574c0 7.493671-4.051269 14.407128-10.541077 18.059308C173.945681 196.49755900000002 105.439424 305.11127899999997 105.439424 422.244023c0 191.749162 182.051289 347.701027 405.838122 347.701027 223.768413 0 405.834029-155.980517 405.834029-347.701027C917.110551 230.55318899999997 735.044936 74.602348 511.252986 74.602348L511.252986 74.602348 511.252986 74.602348zM367.42116 406.168905c0-25.39232-20.574594-45.977147-45.977147-45.977147-25.391297 0-45.977147 20.584827-45.977147 45.977147 0 25.397437 20.585851 45.977147 45.977147 45.977147C346.846566 452.146053 367.42116 431.566342 367.42116 406.168905L367.42116 406.168905zM569.730842 406.168905c0-25.39232-20.589944-45.977147-45.977147-45.977147-25.40153 0-45.977147 20.584827-45.977147 45.977147 0 25.397437 20.575618 45.977147 45.977147 45.977147C549.140898 452.146053 569.730842 431.566342 569.730842 406.168905L569.730842 406.168905zM757.316172 406.168905c0-25.39232-20.584827-45.977147-45.977147-45.977147-25.40153 0-45.977147 20.584827-45.977147 45.977147 0 25.397437 20.575618 45.977147 45.977147 45.977147C736.731344 452.146053 757.316172 431.566342 757.316172 406.168905L757.316172 406.168905zM757.316172 406.168905"  horiz-adv-x="1024" />

    
    <glyph glyph-name="dianying" unicode="&#59566;" d="M844.832 10.655999999999949c-30.485333 20.714667-77.781333 18.965333-144.053333-9.386667A425.024 425.024 0 0 0 512-42.66666699999996C276.362667-42.66666699999996 85.333333 148.362667 85.333333 384S276.362667 810.666667 512 810.666667s426.666667-191.029333 426.666667-426.666667a425.013333 425.013333 0 0 0-44.405334-189.717333 32 32 0 0 0-57.301333 28.490666A361.013333 361.013333 0 0 1 874.666667 384c0 200.298667-162.368 362.666667-362.666667 362.666667S149.333333 584.298667 149.333333 384s162.368-362.666667 362.666667-362.666667c56.704 0 111.488 13.013333 161.12 37.653334l1.6 0.746666c84.746667 36.437333 154.176 39.125333 206.08 3.861334a32 32 0 1 0-35.968-52.938667zM512 480a64 64 0 1 0 0 128 64 64 0 0 0 0-128z m160-160a64 64 0 1 0 0 128 64 64 0 0 0 0-128zM512 160a64 64 0 1 0 0 128 64 64 0 0 0 0-128zM352 320a64 64 0 1 0 0 128 64 64 0 0 0 0-128z"  horiz-adv-x="1024" />

    
    <glyph glyph-name="tianjiapengyou" unicode="&#58994;" d="M572.282915 308.58359399999995A293.701506 293.701506 0 0 0 364.586038 809.971852a293.709605 293.709605 0 0 0 415.373506-415.363381 291.777918 291.777918 0 0 0-207.676629-86.024877z m0 523.195671a229.494165 229.494165 0 0 1-162.269829-391.804491 229.502265 229.502265 0 0 1 324.539658 324.590279 227.975543 227.975543 0 0 1-162.269829 67.214212zM139.617367-128H75.399902a499.029333 499.029333 0 0 0 499.424174 499.424174v-64.217464a434.811868 434.811868 0 0 1-435.206709-435.20671zM540.158997 122.03606000000002m10.124147 0l388.19017 0q10.124147 0 10.124147-10.124147l0-44.546247q0-10.124147-10.124147-10.124147l-388.19017 0q-10.124147 0-10.124147 10.124147l0 44.546247q0 10.124147 10.124147 10.124147ZM711.986021 293.86308399999996m10.124147 0l44.546247 0q10.124147 0 10.124147-10.124147l0-388.190171q0-10.124147-10.124147-10.124147l-44.546247 0q-10.124147 0-10.124147 10.124147l0 388.190171q0 10.124147 10.124147 10.124147Z"  horiz-adv-x="1024" />

    
    <glyph glyph-name="x" unicode="&#58906;" d="M113.777778 744.305778C113.777778 765.155556 130.844444 782.222222 151.694222 782.222222H227.555556c20.849778 0 37.916444-17.066667 37.916444-37.916444 0-20.878222-17.066667-37.944889-37.916444-37.944889H189.639111V497.777778c0-94.805333 75.832889-170.666667 170.666667-170.666667 94.805333 0 170.666667 75.861333 170.666666 170.666667V706.360889h-37.944888c-20.849778 0-37.916444 17.066667-37.916445 37.944889C455.111111 765.155556 472.177778 782.222222 493.027556 782.222222H568.888889c20.849778 0 37.916444-17.066667 37.916444-37.916444V497.777778c0-123.249778-91.022222-225.649778-208.583111-242.716445v-22.755555c0-94.833778 75.861333-170.666667 170.666667-170.666667s170.666667 75.832889 170.666667 170.666667v24.632889h75.861333v-24.632889A246.044444 246.044444 0 0 0 568.888889-14.222222a246.044444 246.044444 0 0 0-246.528 246.528v22.755555C204.8 272.128 113.777778 374.528 113.777778 497.777778V744.305778zM777.386667 512c74.951111 0 132.266667-57.315556 132.266666-132.266667 0-74.951111-57.315556-132.266667-132.266666-132.266666-74.951111 0-132.266667 57.315556-132.266667 132.266666 0 74.951111 57.315556 132.266667 132.266667 132.266667z m0.085333-76.8c-32.227556 0-56.888889-24.661333-56.888889-56.888889s24.661333-56.888889 56.888889-56.888889c32.256 0 56.888889 24.661333 56.888889 56.888889s-24.632889 56.888889-56.888889 56.888889z"  horiz-adv-x="1024" />

    
    <glyph glyph-name="pinduoduo" unicode="&#58901;" d="M807.537778 847.644444l12.231111 11.662223a53.475556 53.475556 0 0 0 75.093333-2.275556l11.377778-11.662222a53.191111 53.191111 0 0 0-1.991111-75.093333l-12.231111-11.377778a53.191111 53.191111 0 0 0-75.093334 1.991111l-11.377777 11.946667a52.906667 52.906667 0 0 0 1.991111 74.808888zM493.226667 847.644444l11.377777 11.093334a52.906667 52.906667 0 0 0 75.093334-1.706667l11.093333-11.662222a53.191111 53.191111 0 0 0-1.991111-75.093333l-11.946667-11.093334a52.906667 52.906667 0 0 0-74.808889 1.991111l-11.093333 11.946667a53.475556 53.475556 0 0 0 2.275556 74.524444zM320 305.493333l-56.888889-49.208889a54.044444 54.044444 0 0 1-18.488889-40.106666v-290.986667A53.191111 53.191111 0 0 0 191.431111-128h-85.333333a53.191111 53.191111 0 0 0-53.191111 53.191111v70.257778H113.777778a5.973333 5.973333 0 0 1 6.257778 5.973333v173.226667a53.191111 53.191111 0 0 1-52.053334 52.906667 53.191111 53.191111 0 0 0-52.906666 53.191111V298.66666699999996a53.191111 53.191111 0 0 0 52.906666 53.191111 53.191111 53.191111 0 0 1 53.191111 53.191111v135.111111a53.191111 53.191111 0 0 1-53.191111 53.191111h-14.791111A53.191111 53.191111 0 0 0 0 646.542222v17.066667A53.191111 53.191111 0 0 0 53.191111 716.8h14.791111a53.191111 53.191111 0 0 1 53.191111 53.191111V842.808889A53.191111 53.191111 0 0 0 174.364444 896h17.066667A53.191111 53.191111 0 0 0 244.622222 842.808889v-79.075556a46.933333 46.933333 0 0 1 46.933334-46.933333A46.648889 46.648889 0 0 0 338.204444 668.444444v-28.444444a46.933333 46.933333 0 0 0-46.648888-46.933333 46.648889 46.648889 0 0 1-46.933334-46.364445v-143.928889l30.435556 26.453334L321.706667 384a54.044444 54.044444 0 0 0-1.706667-79.644444zM970.808889 372.90666699999997h-6.826667A53.191111 53.191111 0 0 0 910.222222 426.097778V546.133333a46.933333 46.933333 0 0 0 46.933334 46.933334A46.933333 46.933333 0 0 1 1005.511111 640v23.324444a53.191111 53.191111 0 0 1-53.191111 53.191112H444.871111a53.191111 53.191111 0 0 1-52.906667-53.191112V640a46.648889 46.648889 0 0 1 46.648889-46.933333 46.933333 46.933333 0 0 0 46.933334-46.933334v-120.035555a53.191111 53.191111 0 0 0-53.191111-53.191111H426.666667a53.191111 53.191111 0 0 1-53.191111-53.191111v-17.066667A53.191111 53.191111 0 0 1 426.666667 249.45777799999996h6.826666a53.191111 53.191111 0 0 0 53.191111-52.906667v-104.675555a51.2 51.2 0 0 0-10.24-31.004445L426.666667-10.524444000000017a53.191111 53.191111 0 0 1 12.515555-74.524445l13.368889-9.386667a53.191111 53.191111 0 0 1 73.671111 12.515556l74.808889 105.244444a53.191111 53.191111 0 0 1 9.671111 30.72v142.222223a53.191111 53.191111 0 0 0 53.191111 53.191111h71.111111a53.191111 53.191111 0 0 0 53.191112-53.191111v-270.222223a53.191111 53.191111 0 0 1 51.768888-54.044444h17.066667A53.191111 53.191111 0 0 1 910.222222-74.24000000000001v270.222222a53.191111 53.191111 0 0 0 53.191111 53.191111h7.111111A53.191111 53.191111 0 0 1 1024 302.36444400000005v17.351112a53.191111 53.191111 0 0 1-53.191111 53.191111z m-183.466667 52.337777a53.191111 53.191111 0 0 0-52.906666-53.191111h-71.964445a53.191111 53.191111 0 0 0-53.191111 53.191111v113.777778a53.191111 53.191111 0 0 0 53.191111 53.191111h71.964445a53.191111 53.191111 0 0 0 52.906666-53.191111z"  horiz-adv-x="1024" />

    
    <glyph glyph-name="pengyouquan" unicode="&#58902;" d="M508.8 867.2c-19.2 0-35.2 0-54.4-3.2-41.6-6.4-86.4-16-124.8-32C288 812.8 656 505.6 662.4 496V841.6l-28.8 9.6c-41.6 9.6-83.2 16-124.8 16zM851.2 723.2c-12.8 12.8-25.6 25.6-41.6 35.2-35.2 25.6-73.6 48-112 64-41.6 16 3.2-454.4 0-470.4L944 592c-3.2 9.6-9.6 19.2-16 25.6-19.2 41.6-48 73.6-76.8 105.6zM956.8 560s-323.2-320-336-329.6h345.6l9.6 28.8c9.6 38.4 16 80 16 121.6 0 19.2 0 35.2-3.2 54.4-3.2 44.8-16 86.4-32 124.8zM483.2 192l240-240c9.6 3.2 19.2 9.6 25.6 16 35.2 19.2 70.4 44.8 99.2 76.8 12.8 12.8 25.6 25.6 35.2 41.6 25.6 35.2 48 70.4 64 108.8 3.2-3.2-451.2-6.4-464-3.2zM358.4 272v-345.6l28.8-9.6c41.6-9.6 80-16 121.6-16 19.2 0 35.2 0 54.4 3.2 41.6 6.4 83.2 16 124.8 32 0 0-320 326.4-329.6 336zM323.2 408.384L80 165.184c3.2-9.6 9.6-19.2 16-28.8 19.2-35.2 44.8-67.2 73.6-99.2 12.8-12.8 25.6-25.6 41.6-35.2 35.2-28.8 70.4-48 112-67.2 0 0-3.2 457.6 0 473.6zM44.8 504.384a512 512 0 0 1-16-124.8c0-19.2 0-35.2 3.2-54.4 6.4-44.8 16-86.4 32-124.8 0 0 323.2 326.4 336 332.8H54.4c-3.2-6.4-6.4-19.2-9.6-28.8zM272 803.2c-38.4-22.4-70.4-48-99.2-76.8L134.4 688c-25.6-35.2-48-70.4-64-108.8 0 0 454.4 3.2 470.4 0L297.6 816c-9.6-3.2-19.2-9.6-25.6-12.8z"  horiz-adv-x="1024" />

    


  </font>
</defs>
</svg>
